<svg xmlns="http://www.w3.org/2000/svg" viewBox="188 355 648 210" width="648" height="210">
  <g fill="none" stroke-width="9.2" stroke-linecap="round" stroke-linejoin="round">
    <path stroke="#4A3E2E" d="M 210.75 540.00 C 210.79 540.00 210.83 540.00 211.00 540.00 C 211.17 540.00 211.50 540.00 211.75 540.00 C 212.00 540.00 212.25 540.04 212.50 540.00 C 212.75 539.96 213.00 539.79 213.25 539.75 C 213.50 539.71 213.75 539.75 214.00 539.75 C 214.25 539.75 214.50 539.75 214.75 539.75 C 215.00 539.75 215.25 539.75 215.50 539.75 C 215.75 539.75 216.00 539.75 216.25 539.75 C 216.50 539.75 216.75 539.75 217.00 539.75 C 217.25 539.75 217.50 539.75 217.75 539.75 C 218.00 539.75 218.25 539.75 218.50 539.75 C 218.75 539.75 219.00 539.75 219.25 539.75 C 219.50 539.75 219.75 539.75 220.00 539.75 C 220.25 539.75 220.50 539.75 220.75 539.75 C 221.00 539.75 221.25 539.75 221.50 539.75 C 221.75 539.75 222.00 539.75 222.25 539.75 C 222.50 539.75 222.75 539.75 223.00 539.75 C 223.25 539.75 223.50 539.75 223.75 539.75 C 224.00 539.75 224.25 539.75 224.50 539.75 C 224.75 539.75 225.00 539.79 225.25 539.75 C 225.50 539.71 225.75 539.54 226.00 539.50 C 226.25 539.46 226.50 539.50 226.75 539.50 C 227.00 539.50 227.25 539.54 227.50 539.50 C 227.75 539.46 228.00 539.29 228.25 539.25 C 228.50 539.21 228.75 539.25 229.00 539.25 C 229.25 539.25 229.50 539.25 229.75 539.25 C 230.00 539.25 230.25 539.25 230.50 539.25 C 230.75 539.25 231.00 539.29 231.25 539.25 C 231.50 539.21 231.75 539.04 232.00 539.00 C 232.25 538.96 232.50 539.04 232.75 539.00 C 233.00 538.96 233.25 538.79 233.50 538.75 C 233.75 538.71 234.00 538.79 234.25 538.75 C 234.50 538.71 234.75 538.54 235.00 538.50 C 235.25 538.46 235.50 538.54 235.75 538.50 C 236.00 538.46 236.25 538.29 236.50 538.25 C 236.75 538.21 237.00 538.29 237.25 538.25 C 237.50 538.21 237.75 538.08 238.00 538.00 C 238.25 537.92 238.50 537.83 238.75 537.75 C 239.00 537.67 239.25 537.58 239.50 537.50 C 239.75 537.42 240.00 537.33 240.25 537.25 C 240.50 537.17 240.75 537.04 241.00 537.00 C 241.25 536.96 241.50 537.04 241.75 537.00 C 242.00 536.96 242.25 536.83 242.50 536.75 C 242.75 536.67 243.00 536.58 243.25 536.50 C 243.50 536.42 243.75 536.38 244.00 536.25 C 244.25 536.12 244.50 535.88 244.75 535.75 C 245.00 535.62 245.25 535.58 245.50 535.50 C 245.75 535.42 246.00 535.33 246.25 535.25 C 246.50 535.17 246.75 535.08 247.00 535.00 C 247.25 534.92 247.50 534.83 247.75 534.75 C 248.00 534.67 248.25 534.62 248.50 534.50 C 248.75 534.38 249.00 534.12 249.25 534.00 C 249.50 533.88 249.75 533.83 250.00 533.75 C 250.25 533.67 250.50 533.62 250.75 533.50 C 251.00 533.38 251.25 533.12 251.50 533.00 C 251.75 532.88 252.00 532.88 252.25 532.75 C 252.50 532.62 252.75 532.42 253.00 532.25 C 253.25 532.08 253.50 531.88 253.75 531.75 C 254.00 531.62 254.25 531.62 254.50 531.50 C 254.75 531.38 255.00 531.17 255.25 531.00 C 255.50 530.83 255.75 530.62 256.00 530.50 C 256.25 530.38 256.50 530.38 256.75 530.25 C 257.00 530.12 257.25 529.92 257.50 529.75 C 257.75 529.58 258.00 529.42 258.25 529.25 C 258.50 529.08 258.75 528.92 259.00 528.75 C 259.25 528.58 259.50 528.42 259.75 528.25 C 260.00 528.08 260.25 527.96 260.50 527.75 C 260.75 527.54 261.00 527.21 261.25 527.00 C 261.50 526.79 261.75 526.67 262.00 526.50 C 262.25 526.33 262.50 526.17 262.75 526.00 C 263.00 525.83 263.25 525.71 263.50 525.50 C 263.75 525.29 264.00 524.96 264.25 524.75 C 264.50 524.54 264.75 524.46 265.00 524.25 C 265.25 524.04 265.50 523.71 265.75 523.50 C 266.00 523.29 266.25 523.21 266.50 523.00 C 266.75 522.79 267.00 522.50 267.25 522.25 C 267.50 522.00 267.75 521.75 268.00 521.50 C 268.25 521.25 268.50 520.96 268.75 520.75 C 269.00 520.54 269.25 520.46 269.50 520.25 C 269.75 520.04 270.00 519.75 270.25 519.50 C 270.50 519.25 270.75 519.00 271.00 518.75 C 271.25 518.50 271.50 518.25 271.75 518.00 C 272.00 517.75 272.29 517.50 272.50 517.25 C 272.71 517.00 272.79 516.75 273.00 516.50 C 273.21 516.25 273.50 516.00 273.75 515.75 C 274.00 515.50 274.25 515.25 274.50 515.00 C 274.75 514.75 275.04 514.50 275.25 514.25 C 275.46 514.00 275.54 513.75 275.75 513.50 C 275.96 513.25 276.29 513.00 276.50 512.75 C 276.71 512.50 276.79 512.25 277.00 512.00 C 277.21 511.75 277.54 511.50 277.75 511.25 C 277.96 511.00 278.04 510.75 278.25 510.50 C 278.46 510.25 278.79 510.00 279.00 509.75 C 279.21 509.50 279.33 509.25 279.50 509.00 C 279.67 508.75 279.79 508.50 280.00 508.25 C 280.21 508.00 280.54 507.75 280.75 507.50 C 280.96 507.25 281.08 507.00 281.25 506.75 C 281.42 506.50 281.54 506.25 281.75 506.00 C 281.96 505.75 282.29 505.50 282.50 505.25 C 282.71 505.00 282.83 504.75 283.00 504.50 C 283.17 504.25 283.33 504.00 283.50 503.75 C 283.67 503.50 283.83 503.25 284.00 503.00 C 284.17 502.75 284.33 502.50 284.50 502.25 C 284.67 502.00 284.83 501.75 285.00 501.50 C 285.17 501.25 285.33 501.00 285.50 500.75 C 285.67 500.50 285.83 500.25 286.00 500.00 C 286.17 499.75 286.33 499.50 286.50 499.25 C 286.67 499.00 286.83 498.75 287.00 498.50 C 287.17 498.25 287.33 498.00 287.50 497.75 C 287.67 497.50 287.83 497.25 288.00 497.00 C 288.17 496.75 288.33 496.50 288.50 496.25 C 288.67 496.00 288.83 495.75 289.00 495.50 C 289.17 495.25 289.33 495.00 289.50 494.75 C 289.67 494.50 289.83 494.25 290.00 494.00 C 290.17 493.75 290.33 493.50 290.50 493.25 C 290.67 493.00 290.83 492.75 291.00 492.50 C 291.17 492.25 291.38 492.00 291.50 491.75 C 291.62 491.50 291.62 491.25 291.75 491.00 C 291.88 490.75 292.08 490.50 292.25 490.25 C 292.42 490.00 292.58 489.75 292.75 489.50 C 292.92 489.25 293.08 489.00 293.25 488.75 C 293.42 488.50 293.62 488.25 293.75 488.00 C 293.88 487.75 293.88 487.50 294.00 487.25 C 294.12 487.00 294.33 486.75 294.50 486.50 C 294.67 486.25 294.83 486.00 295.00 485.75 C 295.17 485.50 295.38 485.25 295.50 485.00 C 295.62 484.75 295.62 484.50 295.75 484.25 C 295.88 484.00 296.08 483.75 296.25 483.50 C 296.42 483.25 296.62 483.00 296.75 482.75 C 296.88 482.50 296.88 482.25 297.00 482.00 C 297.12 481.75 297.33 481.50 297.50 481.25 C 297.67 481.00 297.88 480.75 298.00 480.50 C 298.12 480.25 298.12 480.00 298.25 479.75 C 298.38 479.50 298.62 479.25 298.75 479.00 C 298.88 478.75 298.88 478.50 299.00 478.25 C 299.12 478.00 299.33 477.75 299.50 477.50 C 299.67 477.25 299.88 477.00 300.00 476.75 C 300.12 476.50 300.12 476.25 300.25 476.00 C 300.38 475.75 300.62 475.50 300.75 475.25 C 300.88 475.00 300.88 474.75 301.00 474.50 C 301.12 474.25 301.33 474.00 301.50 473.75 C 301.67 473.50 301.88 473.25 302.00 473.00 C 302.12 472.75 302.12 472.50 302.25 472.25 C 302.38 472.00 302.62 471.75 302.75 471.50 C 302.88 471.25 302.88 471.00 303.00 470.75 C 303.12 470.50 303.38 470.25 303.50 470.00 C 303.62 469.75 303.62 469.50 303.75 469.25 C 303.88 469.00 304.08 468.75 304.25 468.50 C 304.42 468.25 304.62 468.00 304.75 467.75 C 304.88 467.50 304.88 467.25 305.00 467.00 C 305.12 466.75 305.38 466.50 305.50 466.25 C 305.62 466.00 305.62 465.75 305.75 465.50 C 305.88 465.25 306.12 465.00 306.25 464.75 C 306.38 464.50 306.38 464.25 306.50 464.00 C 306.62 463.75 306.88 463.50 307.00 463.25 C 307.12 463.00 307.12 462.75 307.25 462.50 C 307.38 462.25 307.62 462.00 307.75 461.75 C 307.88 461.50 307.92 461.25 308.00 461.00 C 308.08 460.75 308.12 460.50 308.25 460.25 C 308.38 460.00 308.62 459.75 308.75 459.50 C 308.88 459.25 308.88 459.00 309.00 458.75 C 309.12 458.50 309.38 458.25 309.50 458.00 C 309.62 457.75 309.62 457.50 309.75 457.25 C 309.88 457.00 310.12 456.75 310.25 456.50 C 310.38 456.25 310.38 456.00 310.50 455.75 C 310.62 455.50 310.88 455.25 311.00 455.00 C 311.12 454.75 311.12 454.50 311.25 454.25 C 311.38 454.00 311.62 453.75 311.75 453.50 C 311.88 453.25 311.88 453.00 312.00 452.75 C 312.12 452.50 312.38 452.25 312.50 452.00 C 312.62 451.75 312.67 451.50 312.75 451.25 C 312.83 451.00 312.88 450.75 313.00 450.50 C 313.12 450.25 313.38 450.00 313.50 449.75 C 313.62 449.50 313.62 449.25 313.75 449.00 C 313.88 448.75 314.12 448.50 314.25 448.25 C 314.38 448.00 314.38 447.75 314.50 447.50 C 314.62 447.25 314.88 447.00 315.00 446.75 C 315.12 446.50 315.12 446.25 315.25 446.00 C 315.38 445.75 315.62 445.50 315.75 445.25 C 315.88 445.00 315.92 444.75 316.00 444.50 C 316.08 444.25 316.12 444.00 316.25 443.75 C 316.38 443.50 316.62 443.25 316.75 443.00 C 316.88 442.75 316.88 442.50 317.00 442.25 C 317.12 442.00 317.38 441.75 317.50 441.50 C 317.62 441.25 317.67 441.00 317.75 440.75 C 317.83 440.50 317.88 440.25 318.00 440.00 C 318.12 439.75 318.38 439.50 318.50 439.25 C 318.62 439.00 318.62 438.75 318.75 438.50 C 318.88 438.25 319.12 438.00 319.25 437.75 C 319.38 437.50 319.42 437.25 319.50 437.00 C 319.58 436.75 319.62 436.50 319.75 436.25 C 319.88 436.00 320.12 435.75 320.25 435.50 C 320.38 435.25 320.38 435.00 320.50 434.75 C 320.62 434.50 320.88 434.25 321.00 434.00 C 321.12 433.75 321.17 433.50 321.25 433.25 C 321.33 433.00 321.38 432.75 321.50 432.50 C 321.62 432.25 321.88 432.00 322.00 431.75 C 322.12 431.50 322.17 431.25 322.25 431.00 C 322.33 430.75 322.38 430.50 322.50 430.25 C 322.62 430.00 322.88 429.75 323.00 429.50 C 323.12 429.25 323.12 429.00 323.25 428.75 C 323.38 428.50 323.62 428.25 323.75 428.00 C 323.88 427.75 323.92 427.50 324.00 427.25 C 324.08 427.00 324.12 426.75 324.25 426.50 C 324.38 426.25 324.62 426.00 324.75 425.75 C 324.88 425.50 324.88 425.25 325.00 425.00 C 325.12 424.75 325.38 424.50 325.50 424.25 C 325.62 424.00 325.62 423.75 325.75 423.50 C 325.88 423.25 326.12 423.00 326.25 422.75 C 326.38 422.50 326.42 422.25 326.50 422.00 C 326.58 421.75 326.62 421.50 326.75 421.25 C 326.88 421.00 327.12 420.75 327.25 420.50 C 327.38 420.25 327.38 420.00 327.50 419.75 C 327.62 419.50 327.88 419.25 328.00 419.00 C 328.12 418.75 328.12 418.50 328.25 418.25 C 328.38 418.00 328.62 417.75 328.75 417.50 C 328.88 417.25 328.88 417.00 329.00 416.75 C 329.12 416.50 329.38 416.25 329.50 416.00 C 329.62 415.75 329.62 415.50 329.75 415.25 C 329.88 415.00 330.12 414.75 330.25 414.50 C 330.38 414.25 330.42 414.00 330.50 413.75 C 330.58 413.50 330.62 413.25 330.75 413.00 C 330.88 412.75 331.12 412.50 331.25 412.25 C 331.38 412.00 331.38 411.75 331.50 411.50 C 331.62 411.25 331.88 411.00 332.00 410.75 C 332.12 410.50 332.12 410.25 332.25 410.00 C 332.38 409.75 332.62 409.50 332.75 409.25 C 332.88 409.00 332.88 408.75 333.00 408.50 C 333.12 408.25 333.38 408.00 333.50 407.75 C 333.62 407.50 333.62 407.25 333.75 407.00 C 333.88 406.75 334.08 406.50 334.25 406.25 C 334.42 406.00 334.62 405.75 334.75 405.50 C 334.88 405.25 334.88 405.00 335.00 404.75 C 335.12 404.50 335.38 404.25 335.50 404.00 C 335.62 403.75 335.62 403.50 335.75 403.25 C 335.88 403.00 336.12 402.75 336.25 402.50 C 336.38 402.25 336.38 402.00 336.50 401.75 C 336.62 401.50 336.83 401.25 337.00 401.00 C 337.17 400.75 337.33 400.50 337.50 400.25 C 337.67 400.00 337.88 399.75 338.00 399.50 C 338.12 399.25 338.12 399.00 338.25 398.75 C 338.38 398.50 338.58 398.25 338.75 398.00 C 338.92 397.75 339.12 397.50 339.25 397.25 C 339.38 397.00 339.38 396.75 339.50 396.50 C 339.62 396.25 339.83 396.00 340.00 395.75 C 340.17 395.50 340.33 395.25 340.50 395.00 C 340.67 394.75 340.83 394.50 341.00 394.25 C 341.17 394.00 341.33 393.75 341.50 393.50 C 341.67 393.25 341.83 393.00 342.00 392.75 C 342.17 392.50 342.33 392.25 342.50 392.00 C 342.67 391.75 342.83 391.50 343.00 391.25 C 343.17 391.00 343.33 390.75 343.50 390.50 C 343.67 390.25 343.83 390.00 344.00 389.75 C 344.17 389.50 344.33 389.25 344.50 389.00 C 344.67 388.75 344.79 388.50 345.00 388.25 C 345.21 388.00 345.54 387.75 345.75 387.50 C 345.96 387.25 346.04 387.00 346.25 386.75 C 346.46 386.50 346.75 386.25 347.00 386.00 C 347.25 385.75 347.54 385.50 347.75 385.25 C 347.96 385.00 348.04 384.75 348.25 384.50 C 348.46 384.25 348.75 384.00 349.00 383.75 C 349.25 383.50 349.50 383.25 349.75 383.00 C 350.00 382.75 350.25 382.50 350.50 382.25 C 350.75 382.00 351.00 381.75 351.25 381.50 C 351.50 381.25 351.75 380.96 352.00 380.75 C 352.25 380.54 352.50 380.42 352.75 380.25 C 353.00 380.08 353.25 379.96 353.50 379.75 C 353.75 379.54 354.00 379.21 354.25 379.00 C 354.50 378.79 354.75 378.67 355.00 378.50 C 355.25 378.33 355.50 378.17 355.75 378.00 C 356.00 377.83 356.25 377.67 356.50 377.50 C 356.75 377.33 357.00 377.12 357.25 377.00 C 357.50 376.88 357.75 376.83 358.00 376.75 C 358.25 376.67 358.50 376.62 358.75 376.50 C 359.00 376.38 359.25 376.12 359.50 376.00 C 359.75 375.88 360.00 375.88 360.25 375.75 C 360.50 375.62 360.75 375.38 361.00 375.25 C 361.25 375.12 361.50 375.08 361.75 375.00 C 362.00 374.92 362.25 374.83 362.50 374.75 C 362.75 374.67 363.00 374.58 363.25 374.50 C 363.50 374.42 363.75 374.29 364.00 374.25 C 364.25 374.21 364.50 374.29 364.75 374.25 C 365.00 374.21 365.25 374.08 365.50 374.00 C 365.75 373.92 366.00 373.79 366.25 373.75 C 366.50 373.71 366.75 373.75 367.00 373.75 C 367.25 373.75 367.50 373.79 367.75 373.75 C 368.00 373.71 368.25 373.54 368.50 373.50 C 368.75 373.46 369.00 373.50 369.25 373.50 C 369.50 373.50 369.75 373.50 370.00 373.50 C 370.25 373.50 370.50 373.54 370.75 373.50 C 371.00 373.46 371.25 373.29 371.50 373.25 C 371.75 373.21 372.00 373.21 372.25 373.25 C 372.50 373.29 372.75 373.46 373.00 373.50 C 373.25 373.54 373.50 373.50 373.75 373.50 C 374.00 373.50 374.25 373.50 374.50 373.50 C 374.75 373.50 375.00 373.46 375.25 373.50 C 375.50 373.54 375.75 373.71 376.00 373.75 C 376.25 373.79 376.50 373.71 376.75 373.75 C 377.00 373.79 377.25 373.96 377.50 374.00 C 377.75 374.04 378.00 373.96 378.25 374.00 C 378.50 374.04 378.75 374.17 379.00 374.25 C 379.25 374.33 379.50 374.46 379.75 374.50 C 380.00 374.54 380.25 374.42 380.50 374.50 C 380.75 374.58 381.00 374.92 381.25 375.00 C 381.50 375.08 381.75 374.92 382.00 375.00 C 382.25 375.08 382.50 375.38 382.75 375.50 C 383.00 375.62 383.25 375.67 383.50 375.75 C 383.75 375.83 384.00 375.92 384.25 376.00 C 384.50 376.08 384.75 376.12 385.00 376.25 C 385.25 376.38 385.50 376.62 385.75 376.75 C 386.00 376.88 386.25 376.88 386.50 377.00 C 386.75 377.12 387.00 377.33 387.25 377.50 C 387.50 377.67 387.75 377.88 388.00 378.00 C 388.25 378.12 388.50 378.12 388.75 378.25 C 389.00 378.38 389.25 378.58 389.50 378.75 C 389.75 378.92 390.00 379.08 390.25 379.25 C 390.50 379.42 390.75 379.54 391.00 379.75 C 391.25 379.96 391.50 380.29 391.75 380.50 C 392.00 380.71 392.25 380.83 392.50 381.00 C 392.75 381.17 393.00 381.29 393.25 381.50 C 393.50 381.71 393.75 382.04 394.00 382.25 C 394.25 382.46 394.50 382.54 394.75 382.75 C 395.00 382.96 395.25 383.25 395.50 383.50 C 395.75 383.75 396.00 384.04 396.25 384.25 C 396.50 384.46 396.75 384.54 397.00 384.75 C 397.25 384.96 397.50 385.25 397.75 385.50 C 398.00 385.75 398.25 386.00 398.50 386.25 C 398.75 386.50 399.00 386.75 399.25 387.00 C 399.50 387.25 399.75 387.50 400.00 387.75 C 400.25 388.00 400.50 388.25 400.75 388.50 C 401.00 388.75 401.25 389.00 401.50 389.25 C 401.75 389.50 402.00 389.75 402.25 390.00 C 402.50 390.25 402.75 390.50 403.00 390.75 C 403.25 391.00 403.50 391.25 403.75 391.50 C 404.00 391.75 404.29 392.00 404.50 392.25 C 404.71 392.50 404.79 392.75 405.00 393.00 C 405.21 393.25 405.50 393.50 405.75 393.75 C 406.00 394.00 406.25 394.25 406.50 394.50 C 406.75 394.75 407.04 395.00 407.25 395.25 C 407.46 395.50 407.54 395.75 407.75 396.00 C 407.96 396.25 408.25 396.50 408.50 396.75 C 408.75 397.00 409.04 397.25 409.25 397.50 C 409.46 397.75 409.54 398.00 409.75 398.25 C 409.96 398.50 410.25 398.75 410.50 399.00 C 410.75 399.25 411.04 399.50 411.25 399.75 C 411.46 400.00 411.54 400.25 411.75 400.50 C 411.96 400.75 412.29 401.00 412.50 401.25 C 412.71 401.50 412.79 401.75 413.00 402.00 C 413.21 402.25 413.54 402.50 413.75 402.75 C 413.96 403.00 414.04 403.25 414.25 403.50 C 414.46 403.75 414.79 404.00 415.00 404.25 C 415.21 404.50 415.29 404.75 415.50 405.00 C 415.71 405.25 416.04 405.50 416.25 405.75 C 416.46 406.00 416.54 406.25 416.75 406.50 C 416.96 406.75 417.29 407.00 417.50 407.25 C 417.71 407.50 417.79 407.75 418.00 408.00 C 418.21 408.25 418.54 408.50 418.75 408.75 C 418.96 409.00 419.08 409.25 419.25 409.50 C 419.42 409.75 419.54 410.00 419.75 410.25 C 419.96 410.50 420.29 410.75 420.50 411.00 C 420.71 411.25 420.83 411.50 421.00 411.75 C 421.17 412.00 421.29 412.25 421.50 412.50 C 421.71 412.75 422.04 413.00 422.25 413.25 C 422.46 413.50 422.54 413.75 422.75 414.00 C 422.96 414.25 423.29 414.50 423.50 414.75 C 423.71 415.00 423.83 415.25 424.00 415.50 C 424.17 415.75 424.29 416.00 424.50 416.25 C 424.71 416.50 425.04 416.75 425.25 417.00 C 425.46 417.25 425.58 417.50 425.75 417.75 C 425.92 418.00 426.04 418.25 426.25 418.50 C 426.46 418.75 426.79 419.00 427.00 419.25 C 427.21 419.50 427.33 419.75 427.50 420.00 C 427.67 420.25 427.79 420.50 428.00 420.75 C 428.21 421.00 428.54 421.25 428.75 421.50 C 428.96 421.75 429.08 422.00 429.25 422.25 C 429.42 422.50 429.54 422.75 429.75 423.00 C 429.96 423.25 430.29 423.50 430.50 423.75 C 430.71 424.00 430.83 424.25 431.00 424.50 C 431.17 424.75 431.33 425.00 431.50 425.25 C 431.67 425.50 431.79 425.75 432.00 426.00 C 432.21 426.25 432.54 426.50 432.75 426.75 C 432.96 427.00 433.08 427.25 433.25 427.50 C 433.42 427.75 433.54 428.00 433.75 428.25 C 433.96 428.50 434.29 428.75 434.50 429.00 C 434.71 429.25 434.83 429.50 435.00 429.75 C 435.17 430.00 435.29 430.25 435.50 430.50 C 435.71 430.75 436.04 431.00 436.25 431.25 C 436.46 431.50 436.58 431.75 436.75 432.00 C 436.92 432.25 437.08 432.50 437.25 432.75 C 437.42 433.00 437.58 433.25 437.75 433.50 C 437.92 433.75 438.04 434.00 438.25 434.25 C 438.46 434.50 438.75 434.75 439.00 435.00 C 439.25 435.25 439.50 435.50 439.75 435.75 C 440.00 436.00 440.25 436.25 440.50 436.50 C 440.75 436.75 441.08 437.08 441.25 437.25 C 441.42 437.42 441.46 437.46 441.50 437.50 " stroke="#4E3E2E"></path>
    <path stroke="#4A3E2E" d="M 584.50 438.00 C 584.50 437.96 584.42 437.88 584.50 437.75 C 584.58 437.62 584.79 437.46 585.00 437.25 C 585.21 437.04 585.50 436.75 585.75 436.50 C 586.00 436.25 586.25 436.00 586.50 435.75 C 586.75 435.50 587.00 435.25 587.25 435.00 C 587.50 434.75 587.83 434.50 588.00 434.25 C 588.17 434.00 588.12 433.75 588.25 433.50 C 588.38 433.25 588.54 433.00 588.75 432.75 C 588.96 432.50 589.29 432.25 589.50 432.00 C 589.71 431.75 589.83 431.50 590.00 431.25 C 590.17 431.00 590.33 430.75 590.50 430.50 C 590.67 430.25 590.79 430.00 591.00 429.75 C 591.21 429.50 591.54 429.25 591.75 429.00 C 591.96 428.75 592.08 428.50 592.25 428.25 C 592.42 428.00 592.54 427.75 592.75 427.50 C 592.96 427.25 593.29 427.00 593.50 426.75 C 593.71 426.50 593.83 426.25 594.00 426.00 C 594.17 425.75 594.29 425.50 594.50 425.25 C 594.71 425.00 595.04 424.75 595.25 424.50 C 595.46 424.25 595.58 424.00 595.75 423.75 C 595.92 423.50 596.04 423.25 596.25 423.00 C 596.46 422.75 596.79 422.50 597.00 422.25 C 597.21 422.00 597.33 421.75 597.50 421.50 C 597.67 421.25 597.83 421.00 598.00 420.75 C 598.17 420.50 598.29 420.25 598.50 420.00 C 598.71 419.75 599.04 419.50 599.25 419.25 C 599.46 419.00 599.58 418.75 599.75 418.50 C 599.92 418.25 600.04 418.00 600.25 417.75 C 600.46 417.50 600.79 417.25 601.00 417.00 C 601.21 416.75 601.33 416.50 601.50 416.25 C 601.67 416.00 601.79 415.75 602.00 415.50 C 602.21 415.25 602.54 415.00 602.75 414.75 C 602.96 414.50 603.08 414.25 603.25 414.00 C 603.42 413.75 603.54 413.50 603.75 413.25 C 603.96 413.00 604.29 412.75 604.50 412.50 C 604.71 412.25 604.83 412.00 605.00 411.75 C 605.17 411.50 605.29 411.25 605.50 411.00 C 605.71 410.75 606.04 410.50 606.25 410.25 C 606.46 410.00 606.54 409.75 606.75 409.50 C 606.96 409.25 607.29 409.00 607.50 408.75 C 607.71 408.50 607.83 408.25 608.00 408.00 C 608.17 407.75 608.29 407.50 608.50 407.25 C 608.71 407.00 609.04 406.75 609.25 406.50 C 609.46 406.25 609.54 406.00 609.75 405.75 C 609.96 405.50 610.29 405.25 610.50 405.00 C 610.71 404.75 610.79 404.50 611.00 404.25 C 611.21 404.00 611.54 403.75 611.75 403.50 C 611.96 403.25 612.08 403.00 612.25 402.75 C 612.42 402.50 612.54 402.25 612.75 402.00 C 612.96 401.75 613.29 401.50 613.50 401.25 C 613.71 401.00 613.79 400.75 614.00 400.50 C 614.21 400.25 614.50 400.00 614.75 399.75 C 615.00 399.50 615.29 399.25 615.50 399.00 C 615.71 398.75 615.79 398.50 616.00 398.25 C 616.21 398.00 616.54 397.75 616.75 397.50 C 616.96 397.25 617.04 397.00 617.25 396.75 C 617.46 396.50 617.75 396.25 618.00 396.00 C 618.25 395.75 618.54 395.50 618.75 395.25 C 618.96 395.00 619.04 394.75 619.25 394.50 C 619.46 394.25 619.75 394.00 620.00 393.75 C 620.25 393.50 620.50 393.25 620.75 393.00 C 621.00 392.75 621.29 392.50 621.50 392.25 C 621.71 392.00 621.79 391.75 622.00 391.50 C 622.21 391.25 622.50 391.00 622.75 390.75 C 623.00 390.50 623.25 390.25 623.50 390.00 C 623.75 389.75 624.00 389.50 624.25 389.25 C 624.50 389.00 624.75 388.75 625.00 388.50 C 625.25 388.25 625.50 388.00 625.75 387.75 C 626.00 387.50 626.25 387.25 626.50 387.00 C 626.75 386.75 627.00 386.50 627.25 386.25 C 627.50 386.00 627.75 385.75 628.00 385.50 C 628.25 385.25 628.50 385.00 628.75 384.75 C 629.00 384.50 629.25 384.21 629.50 384.00 C 629.75 383.79 630.00 383.71 630.25 383.50 C 630.50 383.29 630.75 383.00 631.00 382.75 C 631.25 382.50 631.50 382.21 631.75 382.00 C 632.00 381.79 632.25 381.71 632.50 381.50 C 632.75 381.29 633.00 380.96 633.25 380.75 C 633.50 380.54 633.75 380.42 634.00 380.25 C 634.25 380.08 634.50 379.92 634.75 379.75 C 635.00 379.58 635.25 379.42 635.50 379.25 C 635.75 379.08 636.00 378.92 636.25 378.75 C 636.50 378.58 636.75 378.42 637.00 378.25 C 637.25 378.08 637.50 377.92 637.75 377.75 C 638.00 377.58 638.25 377.38 638.50 377.25 C 638.75 377.12 639.00 377.12 639.25 377.00 C 639.50 376.88 639.75 376.62 640.00 376.50 C 640.25 376.38 640.50 376.38 640.75 376.25 C 641.00 376.12 641.25 375.88 641.50 375.75 C 641.75 375.62 642.00 375.58 642.25 375.50 C 642.50 375.42 642.75 375.33 643.00 375.25 C 643.25 375.17 643.50 375.08 643.75 375.00 C 644.00 374.92 644.25 374.83 644.50 374.75 C 644.75 374.67 645.00 374.58 645.25 374.50 C 645.50 374.42 645.75 374.33 646.00 374.25 C 646.25 374.17 646.50 374.04 646.75 374.00 C 647.00 373.96 647.25 374.04 647.50 374.00 C 647.75 373.96 648.00 373.79 648.25 373.75 C 648.50 373.71 648.75 373.79 649.00 373.75 C 649.25 373.71 649.50 373.54 649.75 373.50 C 650.00 373.46 650.25 373.50 650.50 373.50 C 650.75 373.50 651.00 373.54 651.25 373.50 C 651.50 373.46 651.75 373.29 652.00 373.25 C 652.25 373.21 652.50 373.25 652.75 373.25 C 653.00 373.25 653.25 373.25 653.50 373.25 C 653.75 373.25 654.00 373.25 654.25 373.25 C 654.50 373.25 654.75 373.25 655.00 373.25 C 655.25 373.25 655.50 373.21 655.75 373.25 C 656.00 373.29 656.25 373.46 656.50 373.50 C 656.75 373.54 657.00 373.50 657.25 373.50 C 657.50 373.50 657.75 373.46 658.00 373.50 C 658.25 373.54 658.50 373.67 658.75 373.75 C 659.00 373.83 659.25 373.96 659.50 374.00 C 659.75 374.04 660.00 373.96 660.25 374.00 C 660.50 374.04 660.75 374.17 661.00 374.25 C 661.25 374.33 661.50 374.42 661.75 374.50 C 662.00 374.58 662.25 374.67 662.50 374.75 C 662.75 374.83 663.00 374.92 663.25 375.00 C 663.50 375.08 663.75 375.17 664.00 375.25 C 664.25 375.33 664.50 375.42 664.75 375.50 C 665.00 375.58 665.25 375.62 665.50 375.75 C 665.75 375.88 666.00 376.12 666.25 376.25 C 666.50 376.38 666.75 376.38 667.00 376.50 C 667.25 376.62 667.50 376.83 667.75 377.00 C 668.00 377.17 668.25 377.33 668.50 377.50 C 668.75 377.67 669.00 377.83 669.25 378.00 C 669.50 378.17 669.75 378.33 670.00 378.50 C 670.25 378.67 670.50 378.83 670.75 379.00 C 671.00 379.17 671.25 379.33 671.50 379.50 C 671.75 379.67 672.00 379.79 672.25 380.00 C 672.50 380.21 672.75 380.54 673.00 380.75 C 673.25 380.96 673.50 381.04 673.75 381.25 C 674.00 381.46 674.25 381.75 674.50 382.00 C 674.75 382.25 675.00 382.50 675.25 382.75 C 675.50 383.00 675.75 383.25 676.00 383.50 C 676.25 383.75 676.50 384.00 676.75 384.25 C 677.00 384.50 677.29 384.75 677.50 385.00 C 677.71 385.25 677.79 385.50 678.00 385.75 C 678.21 386.00 678.54 386.25 678.75 386.50 C 678.96 386.75 679.04 387.00 679.25 387.25 C 679.46 387.50 679.79 387.75 680.00 388.00 C 680.21 388.25 680.33 388.50 680.50 388.75 C 680.67 389.00 680.83 389.25 681.00 389.50 C 681.17 389.75 681.33 390.00 681.50 390.25 C 681.67 390.50 681.83 390.75 682.00 391.00 C 682.17 391.25 682.33 391.50 682.50 391.75 C 682.67 392.00 682.83 392.25 683.00 392.50 C 683.17 392.75 683.33 393.00 683.50 393.25 C 683.67 393.50 683.83 393.75 684.00 394.00 C 684.17 394.25 684.38 394.50 684.50 394.75 C 684.62 395.00 684.62 395.25 684.75 395.50 C 684.88 395.75 685.08 396.00 685.25 396.25 C 685.42 396.50 685.58 396.75 685.75 397.00 C 685.92 397.25 686.08 397.50 686.25 397.75 C 686.42 398.00 686.58 398.25 686.75 398.50 C 686.92 398.75 687.12 399.00 687.25 399.25 C 687.38 399.50 687.38 399.75 687.50 400.00 C 687.62 400.25 687.83 400.50 688.00 400.75 C 688.17 401.00 688.38 401.25 688.50 401.50 C 688.62 401.75 688.62 402.00 688.75 402.25 C 688.88 402.50 689.08 402.75 689.25 403.00 C 689.42 403.25 689.62 403.50 689.75 403.75 C 689.88 404.00 689.88 404.25 690.00 404.50 C 690.12 404.75 690.38 405.00 690.50 405.25 C 690.62 405.50 690.62 405.75 690.75 406.00 C 690.88 406.25 691.08 406.50 691.25 406.75 C 691.42 407.00 691.62 407.25 691.75 407.50 C 691.88 407.75 691.88 408.00 692.00 408.25 C 692.12 408.50 692.38 408.75 692.50 409.00 C 692.62 409.25 692.62 409.50 692.75 409.75 C 692.88 410.00 693.12 410.25 693.25 410.50 C 693.38 410.75 693.38 411.00 693.50 411.25 C 693.62 411.50 693.88 411.75 694.00 412.00 C 694.12 412.25 694.12 412.50 694.25 412.75 C 694.38 413.00 694.62 413.25 694.75 413.50 C 694.88 413.75 694.88 414.00 695.00 414.25 C 695.12 414.50 695.38 414.75 695.50 415.00 C 695.62 415.25 695.67 415.50 695.75 415.75 C 695.83 416.00 695.88 416.25 696.00 416.50 C 696.12 416.75 696.38 417.00 696.50 417.25 C 696.62 417.50 696.62 417.75 696.75 418.00 C 696.88 418.25 697.12 418.50 697.25 418.75 C 697.38 419.00 697.42 419.25 697.50 419.50 C 697.58 419.75 697.62 420.00 697.75 420.25 C 697.88 420.50 698.12 420.75 698.25 421.00 C 698.38 421.25 698.38 421.50 698.50 421.75 C 698.62 422.00 698.88 422.25 699.00 422.50 C 699.12 422.75 699.12 423.00 699.25 423.25 C 699.38 423.50 699.62 423.75 699.75 424.00 C 699.88 424.25 699.92 424.50 700.00 424.75 C 700.08 425.00 700.12 425.25 700.25 425.50 C 700.38 425.75 700.62 426.00 700.75 426.25 C 700.88 426.50 700.88 426.75 701.00 427.00 C 701.12 427.25 701.38 427.50 701.50 427.75 C 701.62 428.00 701.67 428.25 701.75 428.50 C 701.83 428.75 701.88 429.00 702.00 429.25 C 702.12 429.50 702.38 429.75 702.50 430.00 C 702.62 430.25 702.62 430.50 702.75 430.75 C 702.88 431.00 703.12 431.25 703.25 431.50 C 703.38 431.75 703.42 432.00 703.50 432.25 C 703.58 432.50 703.62 432.75 703.75 433.00 C 703.88 433.25 704.12 433.50 704.25 433.75 C 704.38 434.00 704.42 434.25 704.50 434.50 C 704.58 434.75 704.62 435.00 704.75 435.25 C 704.88 435.50 705.12 435.75 705.25 436.00 C 705.38 436.25 705.38 436.50 705.50 436.75 C 705.62 437.00 705.88 437.25 706.00 437.50 C 706.12 437.75 706.17 438.00 706.25 438.25 C 706.33 438.50 706.38 438.75 706.50 439.00 C 706.62 439.25 706.88 439.50 707.00 439.75 C 707.12 440.00 707.12 440.25 707.25 440.50 C 707.38 440.75 707.62 441.00 707.75 441.25 C 707.88 441.50 707.92 441.75 708.00 442.00 C 708.08 442.25 708.12 442.50 708.25 442.75 C 708.38 443.00 708.62 443.25 708.75 443.50 C 708.88 443.75 708.88 444.00 709.00 444.25 C 709.12 444.50 709.38 444.75 709.50 445.00 C 709.62 445.25 709.62 445.50 709.75 445.75 C 709.88 446.00 710.12 446.25 710.25 446.50 C 710.38 446.75 710.42 447.00 710.50 447.25 C 710.58 447.50 710.62 447.75 710.75 448.00 C 710.88 448.25 711.12 448.50 711.25 448.75 C 711.38 449.00 711.38 449.25 711.50 449.50 C 711.62 449.75 711.88 450.00 712.00 450.25 C 712.12 450.50 712.12 450.75 712.25 451.00 C 712.38 451.25 712.62 451.50 712.75 451.75 C 712.88 452.00 712.92 452.25 713.00 452.50 C 713.08 452.75 713.12 453.00 713.25 453.25 C 713.38 453.50 713.62 453.75 713.75 454.00 C 713.88 454.25 713.88 454.50 714.00 454.75 C 714.12 455.00 714.38 455.25 714.50 455.50 C 714.62 455.75 714.62 456.00 714.75 456.25 C 714.88 456.50 715.12 456.75 715.25 457.00 C 715.38 457.25 715.38 457.50 715.50 457.75 C 715.62 458.00 715.88 458.25 716.00 458.50 C 716.12 458.75 716.12 459.00 716.25 459.25 C 716.38 459.50 716.62 459.75 716.75 460.00 C 716.88 460.25 716.88 460.50 717.00 460.75 C 717.12 461.00 717.38 461.25 717.50 461.50 C 717.62 461.75 717.62 462.00 717.75 462.25 C 717.88 462.50 718.12 462.75 718.25 463.00 C 718.38 463.25 718.38 463.50 718.50 463.75 C 718.62 464.00 718.88 464.25 719.00 464.50 C 719.12 464.75 719.17 465.00 719.25 465.25 C 719.33 465.50 719.38 465.75 719.50 466.00 C 719.62 466.25 719.83 466.50 720.00 466.75 C 720.17 467.00 720.38 467.25 720.50 467.50 C 720.62 467.75 720.62 468.00 720.75 468.25 C 720.88 468.50 721.12 468.75 721.25 469.00 C 721.38 469.25 721.38 469.50 721.50 469.75 C 721.62 470.00 721.88 470.25 722.00 470.50 C 722.12 470.75 722.12 471.00 722.25 471.25 C 722.38 471.50 722.62 471.75 722.75 472.00 C 722.88 472.25 722.88 472.50 723.00 472.75 C 723.12 473.00 723.38 473.25 723.50 473.50 C 723.62 473.75 723.62 474.00 723.75 474.25 C 723.88 474.50 724.08 474.75 724.25 475.00 C 724.42 475.25 724.62 475.50 724.75 475.75 C 724.88 476.00 724.88 476.25 725.00 476.50 C 725.12 476.75 725.38 477.00 725.50 477.25 C 725.62 477.50 725.62 477.75 725.75 478.00 C 725.88 478.25 726.08 478.50 726.25 478.75 C 726.42 479.00 726.62 479.25 726.75 479.50 C 726.88 479.75 726.88 480.00 727.00 480.25 C 727.12 480.50 727.33 480.75 727.50 481.00 C 727.67 481.25 727.88 481.50 728.00 481.75 C 728.12 482.00 728.12 482.25 728.25 482.50 C 728.38 482.75 728.58 483.00 728.75 483.25 C 728.92 483.50 729.12 483.75 729.25 484.00 C 729.38 484.25 729.38 484.50 729.50 484.75 C 729.62 485.00 729.83 485.25 730.00 485.50 C 730.17 485.75 730.38 486.00 730.50 486.25 C 730.62 486.50 730.62 486.75 730.75 487.00 C 730.88 487.25 731.08 487.50 731.25 487.75 C 731.42 488.00 731.58 488.25 731.75 488.50 C 731.92 488.75 732.08 489.00 732.25 489.25 C 732.42 489.50 732.62 489.75 732.75 490.00 C 732.88 490.25 732.88 490.50 733.00 490.75 C 733.12 491.00 733.33 491.25 733.50 491.50 C 733.67 491.75 733.83 492.00 734.00 492.25 C 734.17 492.50 734.33 492.75 734.50 493.00 C 734.67 493.25 734.83 493.50 735.00 493.75 C 735.17 494.00 735.38 494.25 735.50 494.50 C 735.62 494.75 735.62 495.00 735.75 495.25 C 735.88 495.50 736.08 495.75 736.25 496.00 C 736.42 496.25 736.58 496.50 736.75 496.75 C 736.92 497.00 737.08 497.25 737.25 497.50 C 737.42 497.75 737.58 498.00 737.75 498.25 C 737.92 498.50 738.08 498.75 738.25 499.00 C 738.42 499.25 738.58 499.50 738.75 499.75 C 738.92 500.00 739.08 500.25 739.25 500.50 C 739.42 500.75 739.58 501.00 739.75 501.25 C 739.92 501.50 740.08 501.75 740.25 502.00 C 740.42 502.25 740.58 502.50 740.75 502.75 C 740.92 503.00 741.04 503.25 741.25 503.50 C 741.46 503.75 741.79 504.00 742.00 504.25 C 742.21 504.50 742.33 504.75 742.50 505.00 C 742.67 505.25 742.83 505.50 743.00 505.75 C 743.17 506.00 743.33 506.25 743.50 506.50 C 743.67 506.75 743.83 507.00 744.00 507.25 C 744.17 507.50 744.29 507.75 744.50 508.00 C 744.71 508.25 745.04 508.50 745.25 508.75 C 745.46 509.00 745.58 509.25 745.75 509.50 C 745.92 509.75 746.04 510.00 746.25 510.25 C 746.46 510.50 746.79 510.75 747.00 511.00 C 747.21 511.25 747.33 511.50 747.50 511.75 C 747.67 512.00 747.79 512.25 748.00 512.50 C 748.21 512.75 748.54 513.00 748.75 513.25 C 748.96 513.50 749.04 513.75 749.25 514.00 C 749.46 514.25 749.75 514.50 750.00 514.75 C 750.25 515.00 750.50 515.25 750.75 515.50 C 751.00 515.75 751.29 516.00 751.50 516.25 C 751.71 516.50 751.79 516.75 752.00 517.00 C 752.21 517.25 752.50 517.50 752.75 517.75 C 753.00 518.00 753.25 518.25 753.50 518.50 C 753.75 518.75 754.00 519.00 754.25 519.25 C 754.50 519.50 754.75 519.75 755.00 520.00 C 755.25 520.25 755.50 520.54 755.75 520.75 C 756.00 520.96 756.25 521.04 756.50 521.25 C 756.75 521.46 757.00 521.75 757.25 522.00 C 757.50 522.25 757.75 522.54 758.00 522.75 C 758.25 522.96 758.50 523.04 758.75 523.25 C 759.00 523.46 759.25 523.79 759.50 524.00 C 759.75 524.21 760.00 524.29 760.25 524.50 C 760.50 524.71 760.75 525.04 761.00 525.25 C 761.25 525.46 761.50 525.58 761.75 525.75 C 762.00 525.92 762.25 526.08 762.50 526.25 C 762.75 526.42 763.00 526.54 763.25 526.75 C 763.50 526.96 763.75 527.29 764.00 527.50 C 764.25 527.71 764.50 527.83 764.75 528.00 C 765.00 528.17 765.25 528.38 765.50 528.50 C 765.75 528.62 766.00 528.62 766.25 528.75 C 766.50 528.88 766.75 529.08 767.00 529.25 C 767.25 529.42 767.50 529.58 767.75 529.75 C 768.00 529.92 768.25 530.08 768.50 530.25 C 768.75 530.42 769.00 530.58 769.25 530.75 C 769.50 530.92 769.75 531.12 770.00 531.25 C 770.25 531.38 770.50 531.38 770.75 531.50 C 771.00 531.62 771.25 531.88 771.50 532.00 C 771.75 532.12 772.00 532.12 772.25 532.25 C 772.50 532.38 772.75 532.58 773.00 532.75 C 773.25 532.92 773.50 533.12 773.75 533.25 C 774.00 533.38 774.25 533.42 774.50 533.50 C 774.75 533.58 775.00 533.62 775.25 533.75 C 775.50 533.88 775.75 534.12 776.00 534.25 C 776.25 534.38 776.50 534.42 776.75 534.50 C 777.00 534.58 777.25 534.67 777.50 534.75 C 777.75 534.83 778.00 534.92 778.25 535.00 C 778.50 535.08 778.75 535.12 779.00 535.25 C 779.25 535.38 779.50 535.62 779.75 535.75 C 780.00 535.88 780.25 535.92 780.50 536.00 C 780.75 536.08 781.00 536.17 781.25 536.25 C 781.50 536.33 781.75 536.42 782.00 536.50 C 782.25 536.58 782.50 536.67 782.75 536.75 C 783.00 536.83 783.25 536.96 783.50 537.00 C 783.75 537.04 784.00 536.96 784.25 537.00 C 784.50 537.04 784.75 537.17 785.00 537.25 C 785.25 537.33 785.50 537.42 785.75 537.50 C 786.00 537.58 786.25 537.71 786.50 537.75 C 786.75 537.79 787.00 537.71 787.25 537.75 C 787.50 537.79 787.75 537.92 788.00 538.00 C 788.25 538.08 788.50 538.17 788.75 538.25 C 789.00 538.33 789.25 538.46 789.50 538.50 C 789.75 538.54 790.00 538.46 790.25 538.50 C 790.50 538.54 790.75 538.71 791.00 538.75 C 791.25 538.79 791.50 538.75 791.75 538.75 C 792.00 538.75 792.25 538.71 792.50 538.75 C 792.75 538.79 793.00 538.92 793.25 539.00 C 793.50 539.08 793.75 539.21 794.00 539.25 C 794.25 539.29 794.50 539.25 794.75 539.25 C 795.00 539.25 795.25 539.21 795.50 539.25 C 795.75 539.29 796.00 539.46 796.25 539.50 C 796.50 539.54 796.75 539.50 797.00 539.50 C 797.25 539.50 797.50 539.50 797.75 539.50 C 798.00 539.50 798.25 539.46 798.50 539.50 C 798.75 539.54 799.00 539.71 799.25 539.75 C 799.50 539.79 799.75 539.75 800.00 539.75 C 800.25 539.75 800.50 539.75 800.75 539.75 C 801.00 539.75 801.25 539.75 801.50 539.75 C 801.75 539.75 802.00 539.75 802.25 539.75 C 802.50 539.75 802.75 539.71 803.00 539.75 C 803.25 539.79 803.50 539.96 803.75 540.00 C 804.00 540.04 804.25 540.00 804.50 540.00 C 804.75 540.00 805.00 540.00 805.25 540.00 C 805.50 540.00 805.75 540.00 806.00 540.00 C 806.25 540.00 806.50 540.00 806.75 540.00 C 807.00 540.00 807.25 540.00 807.50 540.00 C 807.75 540.00 808.00 540.00 808.25 540.00 C 808.50 540.00 808.75 540.04 809.00 540.00 C 809.25 539.96 809.50 539.79 809.75 539.75 C 810.00 539.71 810.25 539.75 810.50 539.75 C 810.75 539.75 811.00 539.75 811.25 539.75 C 811.50 539.75 811.75 539.75 812.00 539.75 C 812.25 539.75 812.50 539.71 812.75 539.75 C 813.00 539.79 813.33 539.96 813.50 540.00 C 813.67 540.04 813.71 540.00 813.75 540.00 " stroke="#4E3E2E"></path>
    <path stroke="#B22A1E" d="M 441.50 437.50 C 441.54 437.54 441.71 437.58 441.75 437.75 C 441.79 437.92 441.75 438.25 441.75 438.50 C 441.75 438.75 441.75 439.00 441.75 439.25 C 441.75 439.50 441.75 439.75 441.75 440.00 C 441.75 440.25 441.62 440.50 441.75 440.75 C 441.88 441.00 442.25 441.25 442.50 441.50 C 442.75 441.75 443.00 442.00 443.25 442.25 C 443.50 442.50 443.75 442.79 444.00 443.00 C 444.25 443.21 444.54 443.33 444.75 443.50 C 444.96 443.67 445.04 443.79 445.25 444.00 C 445.46 444.21 445.79 444.50 446.00 444.75 C 446.21 445.00 446.29 445.25 446.50 445.50 C 446.71 445.75 447.04 446.00 447.25 446.25 C 447.46 446.50 447.58 446.75 447.75 447.00 C 447.92 447.25 448.08 447.50 448.25 447.75 C 448.42 448.00 448.58 448.25 448.75 448.50 C 448.92 448.75 449.08 449.00 449.25 449.25 C 449.42 449.50 449.58 449.75 449.75 450.00 C 449.92 450.25 450.08 450.50 450.25 450.75 C 450.42 451.00 450.58 451.25 450.75 451.50 C 450.92 451.75 451.08 452.00 451.25 452.25 C 451.42 452.50 451.58 452.75 451.75 453.00 C 451.92 453.25 452.08 453.50 452.25 453.75 C 452.42 454.00 452.58 454.25 452.75 454.50 C 452.92 454.75 453.08 455.00 453.25 455.25 C 453.42 455.50 453.58 455.75 453.75 456.00 C 453.92 456.25 454.08 456.50 454.25 456.75 C 454.42 457.00 454.58 457.25 454.75 457.50 C 454.92 457.75 455.08 458.00 455.25 458.25 C 455.42 458.50 455.58 458.75 455.75 459.00 C 455.92 459.25 456.12 459.50 456.25 459.75 C 456.38 460.00 456.38 460.25 456.50 460.50 C 456.62 460.75 456.83 461.00 457.00 461.25 C 457.17 461.50 457.33 461.75 457.50 462.00 C 457.67 462.25 457.83 462.50 458.00 462.75 C 458.17 463.00 458.38 463.25 458.50 463.50 C 458.62 463.75 458.62 464.00 458.75 464.25 C 458.88 464.50 459.08 464.75 459.25 465.00 C 459.42 465.25 459.58 465.50 459.75 465.75 C 459.92 466.00 460.12 466.25 460.25 466.50 C 460.38 466.75 460.38 467.00 460.50 467.25 C 460.62 467.50 460.83 467.75 461.00 468.00 C 461.17 468.25 461.33 468.50 461.50 468.75 C 461.67 469.00 461.88 469.25 462.00 469.50 C 462.12 469.75 462.12 470.00 462.25 470.25 C 462.38 470.50 462.58 470.75 462.75 471.00 C 462.92 471.25 463.12 471.50 463.25 471.75 C 463.38 472.00 463.38 472.25 463.50 472.50 C 463.62 472.75 463.88 473.00 464.00 473.25 C 464.12 473.50 464.12 473.75 464.25 474.00 C 464.38 474.25 464.58 474.50 464.75 474.75 C 464.92 475.00 465.12 475.25 465.25 475.50 C 465.38 475.75 465.42 476.00 465.50 476.25 C 465.58 476.50 465.62 476.75 465.75 477.00 C 465.88 477.25 466.12 477.50 466.25 477.75 C 466.38 478.00 466.38 478.25 466.50 478.50 C 466.62 478.75 466.88 479.00 467.00 479.25 C 467.12 479.50 467.12 479.75 467.25 480.00 C 467.38 480.25 467.62 480.50 467.75 480.75 C 467.88 481.00 467.92 481.25 468.00 481.50 C 468.08 481.75 468.12 482.00 468.25 482.25 C 468.38 482.50 468.62 482.75 468.75 483.00 C 468.88 483.25 468.92 483.50 469.00 483.75 C 469.08 484.00 469.17 484.25 469.25 484.50 C 469.33 484.75 469.38 485.00 469.50 485.25 C 469.62 485.50 469.88 485.75 470.00 486.00 C 470.12 486.25 470.17 486.50 470.25 486.75 C 470.33 487.00 470.42 487.25 470.50 487.50 C 470.58 487.75 470.67 488.00 470.75 488.25 C 470.83 488.50 470.92 488.75 471.00 489.00 C 471.08 489.25 471.17 489.50 471.25 489.75 C 471.33 490.00 471.38 490.25 471.50 490.50 C 471.62 490.75 471.88 491.00 472.00 491.25 C 472.12 491.50 472.17 491.75 472.25 492.00 C 472.33 492.25 472.42 492.50 472.50 492.75 C 472.58 493.00 472.67 493.25 472.75 493.50 C 472.83 493.75 472.92 494.00 473.00 494.25 C 473.08 494.50 473.21 494.75 473.25 495.00 C 473.29 495.25 473.21 495.50 473.25 495.75 C 473.29 496.00 473.42 496.25 473.50 496.50 C 473.58 496.75 473.67 497.00 473.75 497.25 C 473.83 497.50 473.92 497.75 474.00 498.00 C 474.08 498.25 474.21 498.50 474.25 498.75 C 474.29 499.00 474.21 499.25 474.25 499.50 C 474.29 499.75 474.42 500.00 474.50 500.25 C 474.58 500.50 474.67 500.75 474.75 501.00 C 474.83 501.25 474.96 501.50 475.00 501.75 C 475.04 502.00 475.00 502.25 475.00 502.50 C 475.00 502.75 474.96 503.00 475.00 503.25 C 475.04 503.50 475.21 503.75 475.25 504.00 C 475.29 504.25 475.21 504.50 475.25 504.75 C 475.29 505.00 475.46 505.25 475.50 505.50 C 475.54 505.75 475.46 506.00 475.50 506.25 C 475.54 506.50 475.71 506.75 475.75 507.00 C 475.79 507.25 475.75 507.50 475.75 507.75 C 475.75 508.00 475.75 508.25 475.75 508.50 C 475.75 508.75 475.75 509.00 475.75 509.25 C 475.75 509.50 475.71 509.75 475.75 510.00 C 475.79 510.25 475.96 510.50 476.00 510.75 C 476.04 511.00 476.00 511.25 476.00 511.50 C 476.00 511.75 476.00 512.00 476.00 512.25 C 476.00 512.50 476.04 512.75 476.00 513.00 C 475.96 513.25 475.79 513.50 475.75 513.75 C 475.71 514.00 475.75 514.25 475.75 514.50 C 475.75 514.75 475.75 515.00 475.75 515.25 C 475.75 515.50 475.75 515.75 475.75 516.00 C 475.75 516.25 475.79 516.50 475.75 516.75 C 475.71 517.00 475.58 517.25 475.50 517.50 C 475.42 517.75 475.29 518.00 475.25 518.25 C 475.21 518.50 475.25 518.75 475.25 519.00 C 475.25 519.25 475.29 519.50 475.25 519.75 C 475.21 520.00 475.08 520.25 475.00 520.50 C 474.92 520.75 474.79 521.00 474.75 521.25 C 474.71 521.50 474.79 521.75 474.75 522.00 C 474.71 522.25 474.58 522.50 474.50 522.75 C 474.42 523.00 474.33 523.25 474.25 523.50 C 474.17 523.75 474.08 524.00 474.00 524.25 C 473.92 524.50 473.83 524.75 473.75 525.00 C 473.67 525.25 473.58 525.50 473.50 525.75 C 473.42 526.00 473.33 526.25 473.25 526.50 C 473.17 526.75 473.08 527.00 473.00 527.25 C 472.92 527.50 472.88 527.75 472.75 528.00 C 472.62 528.25 472.38 528.50 472.25 528.75 C 472.12 529.00 472.12 529.25 472.00 529.50 C 471.88 529.75 471.67 530.00 471.50 530.25 C 471.33 530.50 471.12 530.75 471.00 531.00 C 470.88 531.25 470.88 531.50 470.75 531.75 C 470.62 532.00 470.42 532.25 470.25 532.50 C 470.08 532.75 469.92 533.00 469.75 533.25 C 469.58 533.50 469.42 533.75 469.25 534.00 C 469.08 534.25 468.96 534.50 468.75 534.75 C 468.54 535.00 468.21 535.25 468.00 535.50 C 467.79 535.75 467.71 536.00 467.50 536.25 C 467.29 536.50 467.00 536.75 466.75 537.00 C 466.50 537.25 466.21 537.50 466.00 537.75 C 465.79 538.00 465.71 538.29 465.50 538.50 C 465.29 538.71 465.00 538.79 464.75 539.00 C 464.50 539.21 464.25 539.50 464.00 539.75 C 463.75 540.00 463.50 540.29 463.25 540.50 C 463.00 540.71 462.75 540.83 462.50 541.00 C 462.25 541.17 462.00 541.29 461.75 541.50 C 461.50 541.71 461.25 542.04 461.00 542.25 C 460.75 542.46 460.50 542.58 460.25 542.75 C 460.00 542.92 459.75 543.08 459.50 543.25 C 459.25 543.42 459.00 543.62 458.75 543.75 C 458.50 543.88 458.25 543.88 458.00 544.00 C 457.75 544.12 457.50 544.38 457.25 544.50 C 457.00 544.62 456.75 544.62 456.50 544.75 C 456.25 544.88 456.00 545.12 455.75 545.25 C 455.50 545.38 455.25 545.42 455.00 545.50 C 454.75 545.58 454.50 545.67 454.25 545.75 C 454.00 545.83 453.75 545.88 453.50 546.00 C 453.25 546.12 453.00 546.38 452.75 546.50 C 452.50 546.62 452.25 546.67 452.00 546.75 C 451.75 546.83 451.50 546.92 451.25 547.00 C 451.00 547.08 450.75 547.17 450.50 547.25 C 450.25 547.33 450.00 547.46 449.75 547.50 C 449.50 547.54 449.25 547.46 449.00 547.50 C 448.75 547.54 448.50 547.67 448.25 547.75 C 448.00 547.83 447.75 547.92 447.50 548.00 C 447.25 548.08 447.00 548.21 446.75 548.25 C 446.50 548.29 446.25 548.25 446.00 548.25 C 445.75 548.25 445.50 548.21 445.25 548.25 C 445.00 548.29 444.75 548.46 444.50 548.50 C 444.25 548.54 444.00 548.46 443.75 548.50 C 443.50 548.54 443.25 548.71 443.00 548.75 C 442.75 548.79 442.50 548.75 442.25 548.75 C 442.00 548.75 441.75 548.75 441.50 548.75 C 441.25 548.75 441.00 548.71 440.75 548.75 C 440.50 548.79 440.25 548.96 440.00 549.00 C 439.75 549.04 439.50 549.00 439.25 549.00 C 439.00 549.00 438.75 549.00 438.50 549.00 C 438.25 549.00 438.00 549.04 437.75 549.00 C 437.50 548.96 437.25 548.79 437.00 548.75 C 436.75 548.71 436.50 548.75 436.25 548.75 C 436.00 548.75 435.75 548.75 435.50 548.75 C 435.25 548.75 435.00 548.75 434.75 548.75 C 434.50 548.75 434.25 548.79 434.00 548.75 C 433.75 548.71 433.50 548.54 433.25 548.50 C 433.00 548.46 432.75 548.54 432.50 548.50 C 432.25 548.46 432.00 548.29 431.75 548.25 C 431.50 548.21 431.25 548.25 431.00 548.25 C 430.75 548.25 430.50 548.29 430.25 548.25 C 430.00 548.21 429.75 548.08 429.50 548.00 C 429.25 547.92 429.00 547.79 428.75 547.75 C 428.50 547.71 428.25 547.79 428.00 547.75 C 427.75 547.71 427.50 547.58 427.25 547.50 C 427.00 547.42 426.75 547.33 426.50 547.25 C 426.25 547.17 426.00 547.08 425.75 547.00 C 425.50 546.92 425.25 546.83 425.00 546.75 C 424.75 546.67 424.50 546.58 424.25 546.50 C 424.00 546.42 423.75 546.33 423.50 546.25 C 423.25 546.17 423.00 546.08 422.75 546.00 C 422.50 545.92 422.25 545.83 422.00 545.75 C 421.75 545.67 421.50 545.58 421.25 545.50 C 421.00 545.42 420.75 545.38 420.50 545.25 C 420.25 545.12 420.00 544.88 419.75 544.75 C 419.50 544.62 419.25 544.62 419.00 544.50 C 418.75 544.38 418.50 544.12 418.25 544.00 C 418.00 543.88 417.75 543.88 417.50 543.75 C 417.25 543.62 417.00 543.42 416.75 543.25 C 416.50 543.08 416.25 542.92 416.00 542.75 C 415.75 542.58 415.50 542.42 415.25 542.25 C 415.00 542.08 414.75 541.92 414.50 541.75 C 414.25 541.58 414.00 541.42 413.75 541.25 C 413.50 541.08 413.25 540.96 413.00 540.75 C 412.75 540.54 412.50 540.25 412.25 540.00 C 412.00 539.75 411.75 539.50 411.50 539.25 C 411.25 539.00 411.00 538.75 410.75 538.50 C 410.50 538.25 410.25 538.00 410.00 537.75 C 409.75 537.50 409.46 537.25 409.25 537.00 C 409.04 536.75 408.96 536.50 408.75 536.25 C 408.54 536.00 408.21 535.75 408.00 535.50 C 407.79 535.25 407.67 535.00 407.50 534.75 C 407.33 534.50 407.17 534.25 407.00 534.00 C 406.83 533.75 406.67 533.50 406.50 533.25 C 406.33 533.00 406.12 532.75 406.00 532.50 C 405.88 532.25 405.88 532.00 405.75 531.75 C 405.62 531.50 405.38 531.25 405.25 531.00 C 405.12 530.75 405.12 530.50 405.00 530.25 C 404.88 530.00 404.62 529.75 404.50 529.50 C 404.38 529.25 404.33 529.00 404.25 528.75 C 404.17 528.50 404.08 528.25 404.00 528.00 C 403.92 527.75 403.83 527.50 403.75 527.25 C 403.67 527.00 403.58 526.75 403.50 526.50 C 403.42 526.25 403.33 526.00 403.25 525.75 C 403.17 525.50 403.04 525.25 403.00 525.00 C 402.96 524.75 403.04 524.50 403.00 524.25 C 402.96 524.00 402.79 523.75 402.75 523.50 C 402.71 523.25 402.79 523.00 402.75 522.75 C 402.71 522.50 402.58 522.25 402.50 522.00 C 402.42 521.75 402.29 521.50 402.25 521.25 C 402.21 521.00 402.25 520.75 402.25 520.50 C 402.25 520.25 402.25 520.00 402.25 519.75 C 402.25 519.50 402.29 519.25 402.25 519.00 C 402.21 518.75 402.04 518.50 402.00 518.25 C 401.96 518.00 402.00 517.75 402.00 517.50 C 402.00 517.25 402.00 517.00 402.00 516.75 C 402.00 516.50 402.00 516.25 402.00 516.00 C 402.00 515.75 402.00 515.50 402.00 515.25 C 402.00 515.00 402.00 514.75 402.00 514.50 C 402.00 514.25 402.00 514.00 402.00 513.75 C 402.00 513.50 401.96 513.25 402.00 513.00 C 402.04 512.75 402.21 512.50 402.25 512.25 C 402.29 512.00 402.25 511.75 402.25 511.50 C 402.25 511.25 402.25 511.00 402.25 510.75 C 402.25 510.50 402.21 510.25 402.25 510.00 C 402.29 509.75 402.42 509.50 402.50 509.25 C 402.58 509.00 402.71 508.75 402.75 508.50 C 402.79 508.25 402.75 508.00 402.75 507.75 C 402.75 507.50 402.71 507.25 402.75 507.00 C 402.79 506.75 402.96 506.50 403.00 506.25 C 403.04 506.00 402.96 505.75 403.00 505.50 C 403.04 505.25 403.17 505.00 403.25 504.75 C 403.33 504.50 403.42 504.25 403.50 504.00 C 403.58 503.75 403.71 503.50 403.75 503.25 C 403.79 503.00 403.71 502.75 403.75 502.50 C 403.79 502.25 403.92 502.00 404.00 501.75 C 404.08 501.50 404.17 501.25 404.25 501.00 C 404.33 500.75 404.42 500.50 404.50 500.25 C 404.58 500.00 404.71 499.75 404.75 499.50 C 404.79 499.25 404.71 499.00 404.75 498.75 C 404.79 498.50 404.92 498.25 405.00 498.00 C 405.08 497.75 405.12 497.50 405.25 497.25 C 405.38 497.00 405.62 496.75 405.75 496.50 C 405.88 496.25 405.92 496.00 406.00 495.75 C 406.08 495.50 406.17 495.25 406.25 495.00 C 406.33 494.75 406.42 494.50 406.50 494.25 C 406.58 494.00 406.62 493.75 406.75 493.50 C 406.88 493.25 407.12 493.00 407.25 492.75 C 407.38 492.50 407.42 492.25 407.50 492.00 C 407.58 491.75 407.67 491.50 407.75 491.25 C 407.83 491.00 407.88 490.75 408.00 490.50 C 408.12 490.25 408.38 490.00 408.50 489.75 C 408.62 489.50 408.67 489.25 408.75 489.00 C 408.83 488.75 408.88 488.50 409.00 488.25 C 409.12 488.00 409.38 487.75 409.50 487.50 C 409.62 487.25 409.62 487.00 409.75 486.75 C 409.88 486.50 410.12 486.25 410.25 486.00 C 410.38 485.75 410.38 485.50 410.50 485.25 C 410.62 485.00 410.83 484.75 411.00 484.50 C 411.17 484.25 411.38 484.00 411.50 483.75 C 411.62 483.50 411.62 483.25 411.75 483.00 C 411.88 482.75 412.08 482.50 412.25 482.25 C 412.42 482.00 412.62 481.75 412.75 481.50 C 412.88 481.25 412.88 481.00 413.00 480.75 C 413.12 480.50 413.33 480.25 413.50 480.00 C 413.67 479.75 413.88 479.50 414.00 479.25 C 414.12 479.00 414.12 478.75 414.25 478.50 C 414.38 478.25 414.58 478.00 414.75 477.75 C 414.92 477.50 415.08 477.25 415.25 477.00 C 415.42 476.75 415.62 476.50 415.75 476.25 C 415.88 476.00 415.88 475.75 416.00 475.50 C 416.12 475.25 416.33 475.00 416.50 474.75 C 416.67 474.50 416.83 474.25 417.00 474.00 C 417.17 473.75 417.38 473.50 417.50 473.25 C 417.62 473.00 417.58 472.75 417.75 472.50 C 417.92 472.25 418.29 472.00 418.50 471.75 C 418.71 471.50 418.83 471.25 419.00 471.00 C 419.17 470.75 419.38 470.50 419.50 470.25 C 419.62 470.00 419.62 469.75 419.75 469.50 C 419.88 469.25 420.08 469.00 420.25 468.75 C 420.42 468.50 420.58 468.25 420.75 468.00 C 420.92 467.75 421.08 467.50 421.25 467.25 C 421.42 467.00 421.58 466.75 421.75 466.50 C 421.92 466.25 422.08 466.00 422.25 465.75 C 422.42 465.50 422.58 465.25 422.75 465.00 C 422.92 464.75 423.08 464.50 423.25 464.25 C 423.42 464.00 423.58 463.75 423.75 463.50 C 423.92 463.25 424.08 463.00 424.25 462.75 C 424.42 462.50 424.58 462.25 424.75 462.00 C 424.92 461.75 425.08 461.50 425.25 461.25 C 425.42 461.00 425.58 460.75 425.75 460.50 C 425.92 460.25 426.04 460.00 426.25 459.75 C 426.46 459.50 426.83 459.25 427.00 459.00 C 427.17 458.75 427.12 458.50 427.25 458.25 C 427.38 458.00 427.54 457.75 427.75 457.50 C 427.96 457.25 428.29 457.00 428.50 456.75 C 428.71 456.50 428.83 456.25 429.00 456.00 C 429.17 455.75 429.33 455.50 429.50 455.25 C 429.67 455.00 429.79 454.75 430.00 454.50 C 430.21 454.25 430.54 454.00 430.75 453.75 C 430.96 453.50 431.08 453.25 431.25 453.00 C 431.42 452.75 431.58 452.50 431.75 452.25 C 431.92 452.00 432.08 451.75 432.25 451.50 C 432.42 451.25 432.58 451.00 432.75 450.75 C 432.92 450.50 433.08 450.25 433.25 450.00 C 433.42 449.75 433.54 449.50 433.75 449.25 C 433.96 449.00 434.29 448.75 434.50 448.50 C 434.71 448.25 434.83 448.00 435.00 447.75 C 435.17 447.50 435.33 447.25 435.50 447.00 C 435.67 446.75 435.83 446.50 436.00 446.25 C 436.17 446.00 436.29 445.75 436.50 445.50 C 436.71 445.25 437.00 445.00 437.25 444.75 C 437.50 444.50 437.75 444.21 438.00 444.00 C 438.25 443.79 438.50 443.71 438.75 443.50 C 439.00 443.29 439.25 443.00 439.50 442.75 C 439.75 442.50 440.00 442.25 440.25 442.00 C 440.50 441.75 440.75 441.50 441.00 441.25 C 441.25 441.00 441.62 440.75 441.75 440.50 C 441.88 440.25 441.75 440.00 441.75 439.75 C 441.75 439.50 441.75 439.25 441.75 439.00 C 441.75 438.75 441.75 438.50 441.75 438.25 C 441.75 438.00 441.62 437.71 441.75 437.50 C 441.88 437.29 442.25 437.21 442.50 437.00 C 442.75 436.79 443.00 436.50 443.25 436.25 C 443.50 436.00 443.75 435.75 444.00 435.50 C 444.25 435.25 444.50 434.96 444.75 434.75 C 445.00 434.54 445.33 434.46 445.50 434.25 C 445.67 434.04 445.58 433.75 445.75 433.50 C 445.92 433.25 446.29 433.00 446.50 432.75 C 446.71 432.50 446.79 432.25 447.00 432.00 C 447.21 431.75 447.54 431.50 447.75 431.25 C 447.96 431.00 448.04 430.75 448.25 430.50 C 448.46 430.25 448.79 430.00 449.00 429.75 C 449.21 429.50 449.29 429.25 449.50 429.00 C 449.71 428.75 450.04 428.50 450.25 428.25 C 450.46 428.00 450.54 427.75 450.75 427.50 C 450.96 427.25 451.29 427.00 451.50 426.75 C 451.71 426.50 451.79 426.25 452.00 426.00 C 452.21 425.75 452.54 425.50 452.75 425.25 C 452.96 425.00 453.08 424.75 453.25 424.50 C 453.42 424.25 453.54 424.00 453.75 423.75 C 453.96 423.50 454.25 423.25 454.50 423.00 C 454.75 422.75 455.04 422.50 455.25 422.25 C 455.46 422.00 455.58 421.75 455.75 421.50 C 455.92 421.25 456.04 421.00 456.25 420.75 C 456.46 420.50 456.79 420.25 457.00 420.00 C 457.21 419.75 457.29 419.50 457.50 419.25 C 457.71 419.00 458.04 418.75 458.25 418.50 C 458.46 418.25 458.54 418.00 458.75 417.75 C 458.96 417.50 459.29 417.25 459.50 417.00 C 459.71 416.75 459.79 416.50 460.00 416.25 C 460.21 416.00 460.54 415.75 460.75 415.50 C 460.96 415.25 461.04 415.00 461.25 414.75 C 461.46 414.50 461.79 414.25 462.00 414.00 C 462.21 413.75 462.29 413.50 462.50 413.25 C 462.71 413.00 463.04 412.75 463.25 412.50 C 463.46 412.25 463.58 412.00 463.75 411.75 C 463.92 411.50 464.04 411.25 464.25 411.00 C 464.46 410.75 464.79 410.50 465.00 410.25 C 465.21 410.00 465.29 409.75 465.50 409.50 C 465.71 409.25 466.00 409.00 466.25 408.75 C 466.50 408.50 466.79 408.25 467.00 408.00 C 467.21 407.75 467.29 407.50 467.50 407.25 C 467.71 407.00 468.04 406.75 468.25 406.50 C 468.46 406.25 468.54 406.00 468.75 405.75 C 468.96 405.50 469.29 405.25 469.50 405.00 C 469.71 404.75 469.79 404.50 470.00 404.25 C 470.21 404.00 470.54 403.75 470.75 403.50 C 470.96 403.25 471.04 403.00 471.25 402.75 C 471.46 402.50 471.75 402.25 472.00 402.00 C 472.25 401.75 472.54 401.50 472.75 401.25 C 472.96 401.00 473.04 400.75 473.25 400.50 C 473.46 400.25 473.79 400.00 474.00 399.75 C 474.21 399.50 474.29 399.25 474.50 399.00 C 474.71 398.75 475.00 398.50 475.25 398.25 C 475.50 398.00 475.79 397.75 476.00 397.50 C 476.21 397.25 476.29 397.00 476.50 396.75 C 476.71 396.50 477.00 396.25 477.25 396.00 C 477.50 395.75 477.79 395.50 478.00 395.25 C 478.21 395.00 478.29 394.75 478.50 394.50 C 478.71 394.25 479.00 394.00 479.25 393.75 C 479.50 393.50 479.75 393.25 480.00 393.00 C 480.25 392.75 480.50 392.50 480.75 392.25 C 481.00 392.00 481.29 391.75 481.50 391.50 C 481.71 391.25 481.79 391.00 482.00 390.75 C 482.21 390.50 482.50 390.25 482.75 390.00 C 483.00 389.75 483.25 389.50 483.50 389.25 C 483.75 389.00 484.00 388.75 484.25 388.50 C 484.50 388.25 484.75 388.00 485.00 387.75 C 485.25 387.50 485.50 387.25 485.75 387.00 C 486.00 386.75 486.25 386.50 486.50 386.25 C 486.75 386.00 487.00 385.75 487.25 385.50 C 487.50 385.25 487.75 385.00 488.00 384.75 C 488.25 384.50 488.50 384.21 488.75 384.00 C 489.00 383.79 489.25 383.71 489.50 383.50 C 489.75 383.29 490.00 382.96 490.25 382.75 C 490.50 382.54 490.75 382.46 491.00 382.25 C 491.25 382.04 491.50 381.71 491.75 381.50 C 492.00 381.29 492.25 381.17 492.50 381.00 C 492.75 380.83 493.00 380.71 493.25 380.50 C 493.50 380.29 493.75 379.96 494.00 379.75 C 494.25 379.54 494.50 379.42 494.75 379.25 C 495.00 379.08 495.25 378.92 495.50 378.75 C 495.75 378.58 496.00 378.38 496.25 378.25 C 496.50 378.12 496.75 378.12 497.00 378.00 C 497.25 377.88 497.50 377.67 497.75 377.50 C 498.00 377.33 498.25 377.12 498.50 377.00 C 498.75 376.88 499.00 376.88 499.25 376.75 C 499.50 376.62 499.75 376.38 500.00 376.25 C 500.25 376.12 500.50 376.08 500.75 376.00 C 501.00 375.92 501.25 375.83 501.50 375.75 C 501.75 375.67 502.00 375.62 502.25 375.50 C 502.50 375.38 502.75 375.08 503.00 375.00 C 503.25 374.92 503.50 375.04 503.75 375.00 C 504.00 374.96 504.25 374.83 504.50 374.75 C 504.75 374.67 505.00 374.58 505.25 374.50 C 505.50 374.42 505.75 374.33 506.00 374.25 C 506.25 374.17 506.50 374.04 506.75 374.00 C 507.00 373.96 507.25 374.00 507.50 374.00 C 507.75 374.00 508.00 374.04 508.25 374.00 C 508.50 373.96 508.75 373.83 509.00 373.75 C 509.25 373.67 509.50 373.54 509.75 373.50 C 510.00 373.46 510.25 373.50 510.50 373.50 C 510.75 373.50 511.00 373.50 511.25 373.50 C 511.50 373.50 511.75 373.54 512.00 373.50 C 512.25 373.46 512.50 373.29 512.75 373.25 C 513.00 373.21 513.25 373.25 513.50 373.25 C 513.75 373.25 514.00 373.21 514.25 373.25 C 514.50 373.29 514.75 373.46 515.00 373.50 C 515.25 373.54 515.50 373.50 515.75 373.50 C 516.00 373.50 516.25 373.46 516.50 373.50 C 516.75 373.54 517.00 373.71 517.25 373.75 C 517.50 373.79 517.75 373.71 518.00 373.75 C 518.25 373.79 518.50 373.96 518.75 374.00 C 519.00 374.04 519.25 373.96 519.50 374.00 C 519.75 374.04 520.00 374.17 520.25 374.25 C 520.50 374.33 520.75 374.42 521.00 374.50 C 521.25 374.58 521.50 374.71 521.75 374.75 C 522.00 374.79 522.25 374.71 522.50 374.75 C 522.75 374.79 523.00 374.92 523.25 375.00 C 523.50 375.08 523.75 375.12 524.00 375.25 C 524.25 375.38 524.50 375.62 524.75 375.75 C 525.00 375.88 525.25 375.92 525.50 376.00 C 525.75 376.08 526.00 376.12 526.25 376.25 C 526.50 376.38 526.75 376.62 527.00 376.75 C 527.25 376.88 527.50 376.88 527.75 377.00 C 528.00 377.12 528.25 377.38 528.50 377.50 C 528.75 377.62 529.00 377.62 529.25 377.75 C 529.50 377.88 529.75 378.08 530.00 378.25 C 530.25 378.42 530.50 378.58 530.75 378.75 C 531.00 378.92 531.25 379.08 531.50 379.25 C 531.75 379.42 532.00 379.58 532.25 379.75 C 532.50 379.92 532.75 380.04 533.00 380.25 C 533.25 380.46 533.50 380.79 533.75 381.00 C 534.00 381.21 534.25 381.33 534.50 381.50 C 534.75 381.67 535.00 381.79 535.25 382.00 C 535.50 382.21 535.75 382.54 536.00 382.75 C 536.25 382.96 536.50 383.04 536.75 383.25 C 537.00 383.46 537.25 383.75 537.50 384.00 C 537.75 384.25 538.00 384.54 538.25 384.75 C 538.50 384.96 538.75 385.04 539.00 385.25 C 539.25 385.46 539.50 385.75 539.75 386.00 C 540.00 386.25 540.25 386.50 540.50 386.75 C 540.75 387.00 541.00 387.25 541.25 387.50 C 541.50 387.75 541.75 388.00 542.00 388.25 C 542.25 388.50 542.50 388.75 542.75 389.00 C 543.00 389.25 543.25 389.50 543.50 389.75 C 543.75 390.00 544.00 390.25 544.25 390.50 C 544.50 390.75 544.79 391.00 545.00 391.25 C 545.21 391.50 545.29 391.75 545.50 392.00 C 545.71 392.25 546.00 392.50 546.25 392.75 C 546.50 393.00 546.75 393.25 547.00 393.50 C 547.25 393.75 547.54 394.00 547.75 394.25 C 547.96 394.50 548.04 394.75 548.25 395.00 C 548.46 395.25 548.75 395.50 549.00 395.75 C 549.25 396.00 549.54 396.25 549.75 396.50 C 549.96 396.75 550.04 397.00 550.25 397.25 C 550.46 397.50 550.75 397.75 551.00 398.00 C 551.25 398.25 551.54 398.50 551.75 398.75 C 551.96 399.00 552.04 399.25 552.25 399.50 C 552.46 399.75 552.79 400.00 553.00 400.25 C 553.21 400.50 553.29 400.75 553.50 401.00 C 553.71 401.25 554.00 401.50 554.25 401.75 C 554.50 402.00 554.79 402.25 555.00 402.50 C 555.21 402.75 555.29 403.00 555.50 403.25 C 555.71 403.50 556.04 403.75 556.25 404.00 C 556.46 404.25 556.54 404.50 556.75 404.75 C 556.96 405.00 557.29 405.25 557.50 405.50 C 557.71 405.75 557.79 406.00 558.00 406.25 C 558.21 406.50 558.54 406.75 558.75 407.00 C 558.96 407.25 559.04 407.50 559.25 407.75 C 559.46 408.00 559.79 408.25 560.00 408.50 C 560.21 408.75 560.29 409.00 560.50 409.25 C 560.71 409.50 561.04 409.75 561.25 410.00 C 561.46 410.25 561.54 410.50 561.75 410.75 C 561.96 411.00 562.29 411.25 562.50 411.50 C 562.71 411.75 562.79 412.00 563.00 412.25 C 563.21 412.50 563.54 412.75 563.75 413.00 C 563.96 413.25 564.04 413.50 564.25 413.75 C 564.46 414.00 564.79 414.25 565.00 414.50 C 565.21 414.75 565.29 415.00 565.50 415.25 C 565.71 415.50 566.04 415.75 566.25 416.00 C 566.46 416.25 566.58 416.50 566.75 416.75 C 566.92 417.00 567.04 417.25 567.25 417.50 C 567.46 417.75 567.79 418.00 568.00 418.25 C 568.21 418.50 568.29 418.75 568.50 419.00 C 568.71 419.25 569.04 419.50 569.25 419.75 C 569.46 420.00 569.54 420.25 569.75 420.50 C 569.96 420.75 570.29 421.00 570.50 421.25 C 570.71 421.50 570.83 421.75 571.00 422.00 C 571.17 422.25 571.29 422.50 571.50 422.75 C 571.71 423.00 572.04 423.25 572.25 423.50 C 572.46 423.75 572.54 424.00 572.75 424.25 C 572.96 424.50 573.29 424.75 573.50 425.00 C 573.71 425.25 573.79 425.50 574.00 425.75 C 574.21 426.00 574.54 426.25 574.75 426.50 C 574.96 426.75 575.08 427.00 575.25 427.25 C 575.42 427.50 575.54 427.75 575.75 428.00 C 575.96 428.25 576.29 428.50 576.50 428.75 C 576.71 429.00 576.79 429.25 577.00 429.50 C 577.21 429.75 577.54 430.00 577.75 430.25 C 577.96 430.50 578.04 430.75 578.25 431.00 C 578.46 431.25 578.79 431.50 579.00 431.75 C 579.21 432.00 579.33 432.25 579.50 432.50 C 579.67 432.75 579.79 433.00 580.00 433.25 C 580.21 433.50 580.54 433.75 580.75 434.00 C 580.96 434.25 581.04 434.54 581.25 434.75 C 581.46 434.96 581.75 435.04 582.00 435.25 C 582.25 435.46 582.50 435.75 582.75 436.00 C 583.00 436.25 583.25 436.50 583.50 436.75 C 583.75 437.00 584.08 437.25 584.25 437.50 C 584.42 437.75 584.46 438.00 584.50 438.25 C 584.54 438.50 584.50 438.75 584.50 439.00 C 584.50 439.25 584.42 439.50 584.50 439.75 C 584.58 440.00 584.79 440.25 585.00 440.50 C 585.21 440.75 585.50 441.00 585.75 441.25 C 586.00 441.50 586.25 441.75 586.50 442.00 C 586.75 442.25 587.00 442.54 587.25 442.75 C 587.50 442.96 587.83 443.04 588.00 443.25 C 588.17 443.46 588.12 443.75 588.25 444.00 C 588.38 444.25 588.58 444.50 588.75 444.75 C 588.92 445.00 589.08 445.25 589.25 445.50 C 589.42 445.75 589.54 446.00 589.75 446.25 C 589.96 446.50 590.29 446.75 590.50 447.00 C 590.71 447.25 590.83 447.50 591.00 447.75 C 591.17 448.00 591.33 448.25 591.50 448.50 C 591.67 448.75 591.79 449.00 592.00 449.25 C 592.21 449.50 592.54 449.75 592.75 450.00 C 592.96 450.25 593.08 450.50 593.25 450.75 C 593.42 451.00 593.58 451.25 593.75 451.50 C 593.92 451.75 594.08 452.00 594.25 452.25 C 594.42 452.50 594.58 452.75 594.75 453.00 C 594.92 453.25 595.04 453.50 595.25 453.75 C 595.46 454.00 595.79 454.25 596.00 454.50 C 596.21 454.75 596.33 455.00 596.50 455.25 C 596.67 455.50 596.83 455.75 597.00 456.00 C 597.17 456.25 597.33 456.50 597.50 456.75 C 597.67 457.00 597.83 457.25 598.00 457.50 C 598.17 457.75 598.33 458.00 598.50 458.25 C 598.67 458.50 598.83 458.75 599.00 459.00 C 599.17 459.25 599.33 459.50 599.50 459.75 C 599.67 460.00 599.83 460.25 600.00 460.50 C 600.17 460.75 600.33 461.00 600.50 461.25 C 600.67 461.50 600.83 461.75 601.00 462.00 C 601.17 462.25 601.33 462.50 601.50 462.75 C 601.67 463.00 601.83 463.25 602.00 463.50 C 602.17 463.75 602.33 464.00 602.50 464.25 C 602.67 464.50 602.83 464.75 603.00 465.00 C 603.17 465.25 603.33 465.50 603.50 465.75 C 603.67 466.00 603.83 466.25 604.00 466.50 C 604.17 466.75 604.33 467.00 604.50 467.25 C 604.67 467.50 604.83 467.75 605.00 468.00 C 605.17 468.25 605.33 468.50 605.50 468.75 C 605.67 469.00 605.88 469.25 606.00 469.50 C 606.12 469.75 606.12 470.00 606.25 470.25 C 606.38 470.50 606.58 470.75 606.75 471.00 C 606.92 471.25 607.08 471.50 607.25 471.75 C 607.42 472.00 607.58 472.25 607.75 472.50 C 607.92 472.75 608.12 473.00 608.25 473.25 C 608.38 473.50 608.38 473.75 608.50 474.00 C 608.62 474.25 608.83 474.50 609.00 474.75 C 609.17 475.00 609.33 475.25 609.50 475.50 C 609.67 475.75 609.88 476.00 610.00 476.25 C 610.12 476.50 610.12 476.75 610.25 477.00 C 610.38 477.25 610.58 477.50 610.75 477.75 C 610.92 478.00 611.12 478.25 611.25 478.50 C 611.38 478.75 611.38 479.00 611.50 479.25 C 611.62 479.50 611.88 479.75 612.00 480.00 C 612.12 480.25 612.12 480.50 612.25 480.75 C 612.38 481.00 612.58 481.25 612.75 481.50 C 612.92 481.75 613.12 482.00 613.25 482.25 C 613.38 482.50 613.38 482.75 613.50 483.00 C 613.62 483.25 613.88 483.50 614.00 483.75 C 614.12 484.00 614.17 484.25 614.25 484.50 C 614.33 484.75 614.38 485.00 614.50 485.25 C 614.62 485.50 614.88 485.75 615.00 486.00 C 615.12 486.25 615.12 486.50 615.25 486.75 C 615.38 487.00 615.62 487.25 615.75 487.50 C 615.88 487.75 615.88 488.00 616.00 488.25 C 616.12 488.50 616.38 488.75 616.50 489.00 C 616.62 489.25 616.67 489.50 616.75 489.75 C 616.83 490.00 616.88 490.25 617.00 490.50 C 617.12 490.75 617.38 491.00 617.50 491.25 C 617.62 491.50 617.67 491.75 617.75 492.00 C 617.83 492.25 617.92 492.50 618.00 492.75 C 618.08 493.00 618.17 493.25 618.25 493.50 C 618.33 493.75 618.38 494.00 618.50 494.25 C 618.62 494.50 618.88 494.75 619.00 495.00 C 619.12 495.25 619.17 495.50 619.25 495.75 C 619.33 496.00 619.42 496.25 619.50 496.50 C 619.58 496.75 619.67 497.00 619.75 497.25 C 619.83 497.50 619.92 497.75 620.00 498.00 C 620.08 498.25 620.17 498.50 620.25 498.75 C 620.33 499.00 620.42 499.25 620.50 499.50 C 620.58 499.75 620.67 500.00 620.75 500.25 C 620.83 500.50 620.96 500.75 621.00 501.00 C 621.04 501.25 620.96 501.50 621.00 501.75 C 621.04 502.00 621.17 502.25 621.25 502.50 C 621.33 502.75 621.46 503.00 621.50 503.25 C 621.54 503.50 621.46 503.75 621.50 504.00 C 621.54 504.25 621.67 504.50 621.75 504.75 C 621.83 505.00 621.96 505.25 622.00 505.50 C 622.04 505.75 621.96 506.00 622.00 506.25 C 622.04 506.50 622.21 506.75 622.25 507.00 C 622.29 507.25 622.21 507.50 622.25 507.75 C 622.29 508.00 622.46 508.25 622.50 508.50 C 622.54 508.75 622.50 509.00 622.50 509.25 C 622.50 509.50 622.50 509.75 622.50 510.00 C 622.50 510.25 622.46 510.50 622.50 510.75 C 622.54 511.00 622.71 511.25 622.75 511.50 C 622.79 511.75 622.75 512.00 622.75 512.25 C 622.75 512.50 622.75 512.75 622.75 513.00 C 622.75 513.25 622.75 513.50 622.75 513.75 C 622.75 514.00 622.75 514.25 622.75 514.50 C 622.75 514.75 622.75 515.00 622.75 515.25 C 622.75 515.50 622.75 515.75 622.75 516.00 C 622.75 516.25 622.79 516.50 622.75 516.75 C 622.71 517.00 622.54 517.25 622.50 517.50 C 622.46 517.75 622.50 518.00 622.50 518.25 C 622.50 518.50 622.50 518.75 622.50 519.00 C 622.50 519.25 622.54 519.50 622.50 519.75 C 622.46 520.00 622.29 520.25 622.25 520.50 C 622.21 520.75 622.25 521.00 622.25 521.25 C 622.25 521.50 622.29 521.75 622.25 522.00 C 622.21 522.25 622.08 522.50 622.00 522.75 C 621.92 523.00 621.79 523.25 621.75 523.50 C 621.71 523.75 621.79 524.00 621.75 524.25 C 621.71 524.50 621.58 524.75 621.50 525.00 C 621.42 525.25 621.33 525.50 621.25 525.75 C 621.17 526.00 621.08 526.25 621.00 526.50 C 620.92 526.75 620.83 527.00 620.75 527.25 C 620.67 527.50 620.58 527.75 620.50 528.00 C 620.42 528.25 620.38 528.50 620.25 528.75 C 620.12 529.00 619.88 529.25 619.75 529.50 C 619.62 529.75 619.62 530.00 619.50 530.25 C 619.38 530.50 619.12 530.75 619.00 531.00 C 618.88 531.25 618.88 531.50 618.75 531.75 C 618.62 532.00 618.42 532.25 618.25 532.50 C 618.08 532.75 617.88 533.00 617.75 533.25 C 617.62 533.50 617.67 533.75 617.50 534.00 C 617.33 534.25 616.96 534.50 616.75 534.75 C 616.54 535.00 616.42 535.25 616.25 535.50 C 616.08 535.75 615.96 536.00 615.75 536.25 C 615.54 536.50 615.21 536.75 615.00 537.00 C 614.79 537.25 614.71 537.50 614.50 537.75 C 614.29 538.00 614.00 538.25 613.75 538.50 C 613.50 538.75 613.25 539.00 613.00 539.25 C 612.75 539.50 612.50 539.79 612.25 540.00 C 612.00 540.21 611.75 540.29 611.50 540.50 C 611.25 540.71 611.00 541.04 610.75 541.25 C 610.50 541.46 610.25 541.58 610.00 541.75 C 609.75 541.92 609.50 542.04 609.25 542.25 C 609.00 542.46 608.75 542.79 608.50 543.00 C 608.25 543.21 608.00 543.38 607.75 543.50 C 607.50 543.62 607.25 543.62 607.00 543.75 C 606.75 543.88 606.50 544.08 606.25 544.25 C 606.00 544.42 605.75 544.62 605.50 544.75 C 605.25 544.88 605.00 544.92 604.75 545.00 C 604.50 545.08 604.25 545.12 604.00 545.25 C 603.75 545.38 603.50 545.62 603.25 545.75 C 603.00 545.88 602.75 545.92 602.50 546.00 C 602.25 546.08 602.00 546.17 601.75 546.25 C 601.50 546.33 601.25 546.42 601.00 546.50 C 600.75 546.58 600.50 546.67 600.25 546.75 C 600.00 546.83 599.75 546.92 599.50 547.00 C 599.25 547.08 599.00 547.17 598.75 547.25 C 598.50 547.33 598.25 547.42 598.00 547.50 C 597.75 547.58 597.50 547.67 597.25 547.75 C 597.00 547.83 596.75 547.96 596.50 548.00 C 596.25 548.04 596.00 547.96 595.75 548.00 C 595.50 548.04 595.25 548.21 595.00 548.25 C 594.75 548.29 594.50 548.21 594.25 548.25 C 594.00 548.29 593.75 548.46 593.50 548.50 C 593.25 548.54 593.00 548.46 592.75 548.50 C 592.50 548.54 592.25 548.71 592.00 548.75 C 591.75 548.79 591.50 548.75 591.25 548.75 C 591.00 548.75 590.75 548.75 590.50 548.75 C 590.25 548.75 590.00 548.75 589.75 548.75 C 589.50 548.75 589.25 548.71 589.00 548.75 C 588.75 548.79 588.50 548.96 588.25 549.00 C 588.00 549.04 587.75 549.00 587.50 549.00 C 587.25 549.00 587.00 549.00 586.75 549.00 C 586.50 549.00 586.25 549.04 586.00 549.00 C 585.75 548.96 585.50 548.79 585.25 548.75 C 585.00 548.71 584.75 548.75 584.50 548.75 C 584.25 548.75 584.00 548.75 583.75 548.75 C 583.50 548.75 583.25 548.79 583.00 548.75 C 582.75 548.71 582.50 548.54 582.25 548.50 C 582.00 548.46 581.75 548.50 581.50 548.50 C 581.25 548.50 581.00 548.50 580.75 548.50 C 580.50 548.50 580.25 548.54 580.00 548.50 C 579.75 548.46 579.50 548.33 579.25 548.25 C 579.00 548.17 578.75 548.04 578.50 548.00 C 578.25 547.96 578.00 548.04 577.75 548.00 C 577.50 547.96 577.25 547.79 577.00 547.75 C 576.75 547.71 576.50 547.79 576.25 547.75 C 576.00 547.71 575.75 547.58 575.50 547.50 C 575.25 547.42 575.00 547.33 574.75 547.25 C 574.50 547.17 574.25 547.08 574.00 547.00 C 573.75 546.92 573.50 546.83 573.25 546.75 C 573.00 546.67 572.75 546.58 572.50 546.50 C 572.25 546.42 572.00 546.33 571.75 546.25 C 571.50 546.17 571.25 546.12 571.00 546.00 C 570.75 545.88 570.50 545.62 570.25 545.50 C 570.00 545.38 569.75 545.33 569.50 545.25 C 569.25 545.17 569.00 545.12 568.75 545.00 C 568.50 544.88 568.25 544.62 568.00 544.50 C 567.75 544.38 567.50 544.38 567.25 544.25 C 567.00 544.12 566.75 543.92 566.50 543.75 C 566.25 543.58 566.00 543.38 565.75 543.25 C 565.50 543.12 565.25 543.12 565.00 543.00 C 564.75 542.88 564.50 542.67 564.25 542.50 C 564.00 542.33 563.75 542.17 563.50 542.00 C 563.25 541.83 563.00 541.67 562.75 541.50 C 562.50 541.33 562.25 541.21 562.00 541.00 C 561.75 540.79 561.50 540.50 561.25 540.25 C 561.00 540.00 560.75 539.71 560.50 539.50 C 560.25 539.29 560.00 539.21 559.75 539.00 C 559.50 538.79 559.25 538.50 559.00 538.25 C 558.75 538.00 558.46 537.75 558.25 537.50 C 558.04 537.25 557.96 537.00 557.75 536.75 C 557.54 536.50 557.21 536.25 557.00 536.00 C 556.79 535.75 556.71 535.50 556.50 535.25 C 556.29 535.00 555.96 534.75 555.75 534.50 C 555.54 534.25 555.42 534.00 555.25 533.75 C 555.08 533.50 554.92 533.25 554.75 533.00 C 554.58 532.75 554.42 532.50 554.25 532.25 C 554.08 532.00 553.88 531.75 553.75 531.50 C 553.62 531.25 553.62 531.00 553.50 530.75 C 553.38 530.50 553.12 530.25 553.00 530.00 C 552.88 529.75 552.83 529.50 552.75 529.25 C 552.67 529.00 552.62 528.75 552.50 528.50 C 552.38 528.25 552.12 528.00 552.00 527.75 C 551.88 527.50 551.83 527.25 551.75 527.00 C 551.67 526.75 551.58 526.50 551.50 526.25 C 551.42 526.00 551.33 525.75 551.25 525.50 C 551.17 525.25 551.08 525.00 551.00 524.75 C 550.92 524.50 550.79 524.25 550.75 524.00 C 550.71 523.75 550.79 523.50 550.75 523.25 C 550.71 523.00 550.58 522.75 550.50 522.50 C 550.42 522.25 550.33 522.00 550.25 521.75 C 550.17 521.50 550.04 521.25 550.00 521.00 C 549.96 520.75 550.00 520.50 550.00 520.25 C 550.00 520.00 550.04 519.75 550.00 519.50 C 549.96 519.25 549.83 519.00 549.75 518.75 C 549.67 518.50 549.54 518.25 549.50 518.00 C 549.46 517.75 549.50 517.50 549.50 517.25 C 549.50 517.00 549.50 516.75 549.50 516.50 C 549.50 516.25 549.50 516.00 549.50 515.75 C 549.50 515.50 549.54 515.25 549.50 515.00 C 549.46 514.75 549.29 514.50 549.25 514.25 C 549.21 514.00 549.25 513.75 549.25 513.50 C 549.25 513.25 549.25 513.00 549.25 512.75 C 549.25 512.50 549.25 512.25 549.25 512.00 C 549.25 511.75 549.21 511.50 549.25 511.25 C 549.29 511.00 549.46 510.75 549.50 510.50 C 549.54 510.25 549.50 510.00 549.50 509.75 C 549.50 509.50 549.50 509.25 549.50 509.00 C 549.50 508.75 549.50 508.50 549.50 508.25 C 549.50 508.00 549.46 507.75 549.50 507.50 C 549.54 507.25 549.71 507.00 549.75 506.75 C 549.79 506.50 549.71 506.25 549.75 506.00 C 549.79 505.75 549.96 505.50 550.00 505.25 C 550.04 505.00 549.96 504.75 550.00 504.50 C 550.04 504.25 550.21 504.00 550.25 503.75 C 550.29 503.50 550.21 503.25 550.25 503.00 C 550.29 502.75 550.46 502.50 550.50 502.25 C 550.54 502.00 550.46 501.75 550.50 501.50 C 550.54 501.25 550.67 501.00 550.75 500.75 C 550.83 500.50 550.92 500.25 551.00 500.00 C 551.08 499.75 551.17 499.50 551.25 499.25 C 551.33 499.00 551.46 498.75 551.50 498.50 C 551.54 498.25 551.46 498.00 551.50 497.75 C 551.54 497.50 551.67 497.25 551.75 497.00 C 551.83 496.75 551.92 496.50 552.00 496.25 C 552.08 496.00 552.17 495.75 552.25 495.50 C 552.33 495.25 552.42 495.00 552.50 494.75 C 552.58 494.50 552.67 494.25 552.75 494.00 C 552.83 493.75 552.92 493.50 553.00 493.25 C 553.08 493.00 553.17 492.75 553.25 492.50 C 553.33 492.25 553.42 492.00 553.50 491.75 C 553.58 491.50 553.67 491.25 553.75 491.00 C 553.83 490.75 553.92 490.50 554.00 490.25 C 554.08 490.00 554.17 489.75 554.25 489.50 C 554.33 489.25 554.42 489.00 554.50 488.75 C 554.58 488.50 554.62 488.25 554.75 488.00 C 554.88 487.75 555.12 487.50 555.25 487.25 C 555.38 487.00 555.42 486.75 555.50 486.50 C 555.58 486.25 555.62 486.00 555.75 485.75 C 555.88 485.50 556.12 485.25 556.25 485.00 C 556.38 484.75 556.42 484.50 556.50 484.25 C 556.58 484.00 556.62 483.75 556.75 483.50 C 556.88 483.25 557.12 483.00 557.25 482.75 C 557.38 482.50 557.38 482.25 557.50 482.00 C 557.62 481.75 557.88 481.50 558.00 481.25 C 558.12 481.00 558.12 480.75 558.25 480.50 C 558.38 480.25 558.62 480.00 558.75 479.75 C 558.88 479.50 558.88 479.25 559.00 479.00 C 559.12 478.75 559.38 478.50 559.50 478.25 C 559.62 478.00 559.62 477.75 559.75 477.50 C 559.88 477.25 560.12 477.00 560.25 476.75 C 560.38 476.50 560.38 476.25 560.50 476.00 C 560.62 475.75 560.88 475.50 561.00 475.25 C 561.12 475.00 561.12 474.75 561.25 474.50 C 561.38 474.25 561.58 474.00 561.75 473.75 C 561.92 473.50 562.12 473.25 562.25 473.00 C 562.38 472.75 562.38 472.50 562.50 472.25 C 562.62 472.00 562.83 471.75 563.00 471.50 C 563.17 471.25 563.33 471.00 563.50 470.75 C 563.67 470.50 563.88 470.25 564.00 470.00 C 564.12 469.75 564.12 469.50 564.25 469.25 C 564.38 469.00 564.58 468.75 564.75 468.50 C 564.92 468.25 565.12 468.00 565.25 467.75 C 565.38 467.50 565.38 467.25 565.50 467.00 C 565.62 466.75 565.83 466.50 566.00 466.25 C 566.17 466.00 566.33 465.75 566.50 465.50 C 566.67 465.25 566.83 465.00 567.00 464.75 C 567.17 464.50 567.33 464.25 567.50 464.00 C 567.67 463.75 567.88 463.50 568.00 463.25 C 568.12 463.00 568.12 462.75 568.25 462.50 C 568.38 462.25 568.58 462.00 568.75 461.75 C 568.92 461.50 569.08 461.25 569.25 461.00 C 569.42 460.75 569.58 460.50 569.75 460.25 C 569.92 460.00 570.08 459.75 570.25 459.50 C 570.42 459.25 570.58 459.00 570.75 458.75 C 570.92 458.50 571.12 458.25 571.25 458.00 C 571.38 457.75 571.38 457.50 571.50 457.25 C 571.62 457.00 571.79 456.75 572.00 456.50 C 572.21 456.25 572.58 456.00 572.75 455.75 C 572.92 455.50 572.88 455.25 573.00 455.00 C 573.12 454.75 573.33 454.50 573.50 454.25 C 573.67 454.00 573.83 453.75 574.00 453.50 C 574.17 453.25 574.33 453.00 574.50 452.75 C 574.67 452.50 574.83 452.25 575.00 452.00 C 575.17 451.75 575.33 451.50 575.50 451.25 C 575.67 451.00 575.79 450.75 576.00 450.50 C 576.21 450.25 576.54 450.00 576.75 449.75 C 576.96 449.50 577.08 449.25 577.25 449.00 C 577.42 448.75 577.58 448.50 577.75 448.25 C 577.92 448.00 578.08 447.75 578.25 447.50 C 578.42 447.25 578.58 447.00 578.75 446.75 C 578.92 446.50 579.08 446.25 579.25 446.00 C 579.42 445.75 579.54 445.50 579.75 445.25 C 579.96 445.00 580.29 444.75 580.50 444.50 C 580.71 444.25 580.88 444.00 581.00 443.75 C 581.12 443.50 581.08 443.25 581.25 443.00 C 581.42 442.75 581.75 442.50 582.00 442.25 C 582.25 442.00 582.50 441.75 582.75 441.50 C 583.00 441.25 583.25 441.00 583.50 440.75 C 583.75 440.50 584.08 440.25 584.25 440.00 C 584.42 439.75 584.46 439.50 584.50 439.25 C 584.54 439.00 584.50 438.71 584.50 438.50 C 584.50 438.29 584.50 438.08 584.50 438.00 " stroke="#B2291F"></path>
  </g>
</svg>